<?xml version="1.0" encoding="utf-8"?>
<!-- Generator: Adobe Illustrator 23.0.1, SVG Export Plug-In . SVG Version: 6.00 Build 0)  -->
<svg version="1.1" id="Layer_1" xmlns="http://www.w3.org/2000/svg" xmlns:xlink="http://www.w3.org/1999/xlink" x="0px" y="0px"
	 viewBox="0 0 741.64 686.14" style="enable-background:new 0 0 741.64 686.14;" xml:space="preserve">
<style type="text/css">
	
		.st0{fill-rule:evenodd;clip-rule:evenodd;fill:none;stroke:#000000;stroke-width:1.0098;stroke-linecap:round;stroke-linejoin:round;stroke-miterlimit:10;}
	
		.st1{fill-rule:evenodd;clip-rule:evenodd;fill:none;stroke:#8B8B8B;stroke-width:6.0587;stroke-linecap:round;stroke-linejoin:round;stroke-miterlimit:10;}
	
		.st2{fill-rule:evenodd;clip-rule:evenodd;fill:none;stroke:#B8B8B8;stroke-width:4.0391;stroke-miterlimit:10;stroke-dasharray:24.2347,8.0782,24.2347,8.0782,24.2347,8.0782;}
</style>
<g>
	<path class="st0" d="M244.76,119c-11.33,18.36-23.1,36.48-33.57,55.32c-15.95,28.71-30.8,58.03-46.47,86.9
		c-16.05,29.56-35.47,56.89-55.48,83.9C93.78,366,81.71,388.89,77.05,414.97c-3.13,17.53-3.42,35.23-2.81,52.92
		c0.56,16.43,1.27,32.91,3.17,49.22c1.71,14.7,3.13,29.93,8.19,43.63c8.62,23.37,22.61,42.51,48.95,49.97
		c27.77,7.86,55.6,8.89,83.7,4.26c21.92-3.61,43.94-7.36,65.34-13.14c28.62-7.74,57.21-15.23,86.88-16.62
		c20.03-0.94,40.15-0.37,60.23-0.05c20.78,0.32,41.45,0.6,61.64-5.74c26.1-8.19,44.46-23.98,51.96-50.98
		c7.93-28.54,3.99-56.46-3.15-84.58c-8.26-32.52-25.58-60.31-42.84-88.34c-9.32-15.13-13.6-31.5-8.26-49.38
		c7.4-24.78,15.11-49.49,21.72-74.48c6.02-22.73,1.85-44.2-10.48-64.34c-13.81-22.57-30.81-42.38-49.1-61.41
		c-13.08-13.61-26.5-26.58-41.66-37.84C387.35,50.85,362,42.04,333.07,48.21c-17.71,3.78-32.77,12.98-46.85,24.36
		c-15.26,12.33-27.7,26.94-38.7,42.97L244.76,119z"/>
	<path class="st0" d="M256.57,110.14c1.58-2.35,6.1-7.81,7.92-9.95c11.05-12.98,23.19-24.97,37.75-33.79
		c28.01-16.97,57.28-20.23,87.45-5.32c18.1,8.94,33.25,21.7,47,36.25c9.69,10.24,20.07,19.96,28.71,31.03
		c12.12,15.51,22.9,31.99,31.23,50.05c10.5,22.77,8.15,45.18,1.67,68.42c-6.83,24.53-18.65,46.74-29,69.69
		c-8.36,18.56-5.09,25.93,7.92,39.51c9.56,9.99,19.03,19.85,27.41,30.99c19.54,25.98,29.72,55.26,34.28,86.99
		c3.54,24.63,1.1,48.23-12.68,69.44c-7.31,11.25-18.7,18.34-30.97,23.21c-23.93,9.48-49.09,7.91-74.09,6.94
		c-20.6-0.8-41.12-1.04-61.68,1.51c-19.61,2.43-38.62,7.17-57.55,12.46c-33,9.24-65.71,19.66-100.24,22.11
		c-23.96,1.7-47.35-0.32-69.83-9.13c-11.77-4.61-20.97-12.67-28.24-23c-11.52-16.36-16.01-35.18-18.57-54.51
		c-3.58-27.01-4.59-54.14-3.23-81.4c1.73-34.69,14.15-64.94,34.3-93.04c25.92-36.15,49.49-73.8,68.59-114.22
		c11.55-24.44,25.18-47.92,38.35-71.56c7.94-14.26,16.75-28.05,25.3-41.97L256.57,110.14z"/>
	<path class="st1" d="M265.97,106.01c9.45-9.66,15.6-17.17,25.43-26.43c24.71-23.29,63.97-28.81,96.16-13.87
		c18.17,8.43,32.83,21.56,46.6,35.68c12.56,12.88,23.53,27.05,34.32,41.5c12.6,16.88,21.48,34.92,25.16,55.41
		c1.41,7.87,2.05,16.31,0.82,24.14c-4.66,29.62-15.39,56.6-35.89,79.34c-10.54,11.69-22.67,20.02-37.65,24.74
		c-9.53,3-19,6.47-28.03,10.73c-7.47,3.52-14.29,8.5-16.5,17.37c-1.91,7.68-0.38,11.5,6.43,15.81c10.89,6.9,22.79,6.2,34.73,4.18
		c16.36-2.77,32.53-5.17,48.97,0.33c12.08,4.04,21.85,11.11,29.67,20.65c6.37,7.76,11.88,16.31,17.07,24.93
		c8.96,14.86,13.45,31.46,16.52,48.34c2.46,13.5,2.22,27.29-0.57,40.67c-4.01,19.3-14.4,34.71-32.31,43.76
		c-14.87,7.51-31.16,9.79-47.66,9.6c-23.7-0.27-47.45-2.21-71.08-1.16c-16.77,0.75-33.66,4.13-49.98,8.35
		c-26.27,6.8-52.17,15.03-78.1,23.07c-24.06,7.46-48.52,10.56-73.66,8.98c-16.97-1.07-33.15-4.49-47.87-13.48
		c-12.65-7.72-20.78-18.64-26.71-32.29c-10.5-24.19-11.9-49.56-13.18-75.24c-0.82-16.34-0.52-32.49,1.52-48.7
		c2.78-22.04,8.72-43.08,20.56-61.96c13.75-21.91,29.28-42.76,42.18-65.14c14.99-26,28.47-52.91,41.67-79.88
		c15.09-30.87,31.36-61.05,49.37-90.28c4.61-7.49,10.54-14.15,15.61-21.37L265.97,106.01z"/>
	<path class="st0" d="M283.01,107.57c7.23-6.08,13.48-13.28,21.12-18.87c5.66-4.14,12.11-7.41,18.62-9.97
		c11.59-4.56,24.15-6.46,36.54-4.89c13.39,1.7,25.96,7.29,37,14.94c14.87,10.3,27.52,22.84,38.47,37.18
		c5.82,7.63,12.08,14.96,17.11,23.15c4.06,6.62,7.55,13.69,10.51,20.86c5.62,13.59,8.96,28.2,7.99,42.96
		c-1,15.33-6.43,30.61-15.18,43.22c-9.48,13.65-22.96,23.52-37.79,30.72c-16.66,8.09-34.6,13.36-51.97,19.69
		c-15.95,5.82-30.83,13.08-42.7,25.49c-7.06,7.38-12.43,16.38-13.09,26.77c-0.79,12.57,4.67,24.92,10.92,35.5
		c8.22,13.92,19.68,25.67,33.5,34.09c13.77,8.39,28.28,12.75,44.46,11.69c16.07-1.06,31.55-6.39,47.7-6.72
		c7.23-0.15,14.72,0.42,21.24,3.79c5.62,2.91,10.36,7.35,14.13,12.39c7.67,10.26,11.52,22.86,9.59,35.59
		c-2.18,14.37-11.26,25.35-25.11,29.93c-16.53,5.47-34.89,1.35-51.7-0.5c-17.67-1.94-35.09-4.01-52.53,0.63
		c-8.63,2.3-16.68,6.01-24.77,9.73c-8.75,4.03-17.45,8.2-26.14,12.36c-16.69,7.98-33.26,16.33-50.29,23.57
		c-29.1,12.37-63.1,21.92-94.58,13.23c-15.51-4.28-29.21-12.76-37.93-26.55c-8.41-13.3-12.79-29.74-15.46-45.11
		c-5.28-30.31-1.78-61.32,6.23-90.83c9.07-33.45,32.36-60.67,50.01-89.8c9.38-15.49,17.51-31.49,24.36-48.25
		c7.29-17.84,14.57-35.7,22.18-53.4c7.42-17.25,15.4-33.93,24.68-50.26c4.11-7.23,11.39-20.5,16.25-27.2
		c9.66-13.31,14.59-21.21,25.54-33.63C282.33,108.61,282.64,108.07,283.01,107.57z"/>
	<path class="st2" d="M255.26,134.77c-4.63,7.35-9.12,14.8-13.55,22.28c-15.96,26.97-29.2,55.26-41.61,84.01
		c-8.56,19.85-17.3,39.71-27.45,58.77c-9.08,17.06-20.24,33.02-30.41,49.5c-11.06,17.92-22.51,35.5-29.36,55.78
		c-7.51,22.24-9.85,45.03-9.73,68.13c0.1,19.24,1.8,38.41,7.62,57.04c10.28,32.95,31.69,51.9,66.67,54.72
		c25.59,2.06,50.26-1.84,74.07-11.03c20.83-8.04,41.38-16.78,62.18-24.91c21.3-8.32,42.76-16.82,65.94-17.28
		c16.97-0.34,33.99,1.36,50.98,2.25c13.59,0.71,26.96,1.04,40.51-2.39c19.36-4.9,33-21.3,35.16-39.87
		c1.39-11.94,0.51-23.06-3.13-34.49c-10.95-34.41-35.44-48.94-70.73-42.45c-16.08,2.96-32.2,6.01-48.87,3.93
		c-16.18-2.02-29.12-9.71-40.52-20.58c-8.28-7.89-13.83-17.15-16.4-28.76c-3.08-13.95,1.77-24.66,10.54-34.34
		c13.5-14.89,32.25-20.15,50.22-26.95c15.08-5.71,30.45-11.09,44.62-18.63c18.25-9.71,30.67-25.26,38.59-44.66
		c7.57-18.55,8.96-37.38,4.51-56.57c-2.3-9.92-6.91-19.14-11.05-28.53c-4.88-11.06-12.13-20.28-19.07-29.54
		c-17.58-23.46-37.59-44.87-65.6-56.05c-19.37-7.73-39.02-8.58-58.93,0.38c-16.01,7.2-29.41,17.21-40.75,30.32L255.26,134.77z"/>
	<path class="st0" d="M272.17,106.05c12.39-15.55,27.91-27.56,45.59-35.83c25.67-12,51.33-9.26,75.7,5.06
		c18.67,10.98,34.25,25.51,47.55,42.5c8.85,11.3,18.61,22.12,25.78,34.43c11.37,19.51,19.93,40.14,18.37,63.86
		c-1.94,29.39-13.53,54.3-34.99,73.6c-10.04,9.03-23.31,14.88-35.81,20.66c-12.97,5.99-26.64,10.58-40.26,14.97
		c-8.87,2.86-15,8.72-21.46,14.86c-12.07,11.47-11.9,33.47,3.81,46.51c13.22,10.97,28.12,16.11,45.14,14.19
		c12.92-1.46,25.7-4.47,38.63-5.34c21.03-1.4,39.9,2.96,54.37,20.76c17.34,21.33,25.13,45.36,24.39,72.4
		c-0.44,16.31-4.57,31.46-17.34,42.8c-10.35,9.19-22.67,14.05-36.4,15.93c-21.12,2.9-42.12,0.03-63.14-0.92
		c-30.26-1.36-58.94,4.94-87.38,14.8c-28,9.7-55.3,21.5-84.53,27.68c-27.57,5.82-54.81,7.12-81.82-1.89
		c-10.69-3.57-19.66-10.01-27.3-18.57c-15.46-17.33-19.41-38.69-22.26-60.55c-3.07-23.51-3.69-46.99-0.62-70.6
		c3.18-24.43,10.23-47.53,23.18-68.48c12.11-19.6,25.55-38.37,37.58-58.01c15.65-25.55,27.59-53,39.83-80.31
		c14.87-33.18,32.1-65.17,51.38-96.02L272.17,106.05z"/>
	<path class="st0" d="M273.84,124.84c5.94-6.67,11.15-13.96,17.8-19.98c6.08-5.51,12.53-10.65,19.53-14.95
		c14.05-8.63,30.06-13.01,46.56-11.21c32.58,3.54,58.5,29.1,77.18,54.14c17.23,23.1,31.12,51.7,27.85,81.26
		c-1.53,13.86-6.73,28.1-15.08,39.33c-10.83,14.56-27.86,23.64-44.23,30.59c-31.96,13.56-68.74,19.04-94.13,44.56
		c-7.22,7.26-12.67,15.98-13.96,26.29c-1.77,14.23,3.16,29.3,9.43,41.85c8.55,17.11,21.8,30.64,33.23,45.74
		c5.68,7.49,11.47,15.1,16.55,23.02c3.45,5.38,3.57,11.95,0.79,17.64c-3.52,7.19-10.91,12.09-17.02,16.92
		c-7.55,5.97-15.38,11.58-23.38,16.93c-15.93,10.66-32.51,20.34-49.18,29.77c-28.3,16-61.04,25.55-93.57,18.9
		c-15.58-3.18-28.13-11.1-37.02-24.37c-9.6-14.34-13.36-31.13-15.49-48.01c-3.49-27.73-1.06-56,8.09-82.47
		c4.66-13.47,10.94-26.35,18.46-38.45c9.62-15.47,20.59-30.04,29.9-45.72c19.11-32.22,30.1-68.06,43.74-102.74
		c9.73-24.73,20.37-49.03,35.22-71.13C261.34,143.44,266.51,134.14,273.84,124.84z"/>
	<path class="st0" d="M267.24,148.85c-8.73,16.25-17.9,32.32-25.41,49.18c-6.92,15.53-12.4,31.69-16.48,48.19
		c-3.99,16.13-5.65,32.65-9.37,48.81c-3.6,15.63-9.47,30.43-19.04,43.38c-5.73,7.75-11.43,15.53-17.24,23.22
		c-5.64,7.47-11.79,14.61-17.21,22.23c-9.65,13.58-16.08,29.52-20.54,45.51c-4.39,15.7-5.91,32.13-4.61,48.38
		c1.33,16.52,4.89,33.66,15.23,47.04c18.22,23.56,50.59,22.85,75.99,12.51c15.73-6.4,30.27-17.25,42.45-29
		c11.5-11.1,20.4-25.34,21.98-41.52c1.5-15.37-3.97-29.71-9.94-43.56c-7.24-16.77-15.41-33.28-19.82-51.09
		c-3.2-12.9-4.08-26.37,3.08-38.15c7.74-12.72,21.67-21.58,34.59-28.21c16.81-8.63,34.99-13.88,52.85-19.81
		c9.07-3,18.09-6.15,27.05-9.47c8.6-3.18,17.33-6.28,25.5-10.48c15.29-7.85,28.41-19.71,35.88-35.37
		c6.42-13.44,7.54-28.47,5.05-43.02c-3.06-17.93-11.05-34.5-21.65-49.16c-9.88-13.67-21.31-26.57-35.52-35.85
		c-12.89-8.41-27.85-13.75-43.38-12.99c-16.94,0.83-33.1,8.5-45.67,19.68c-7.31,6.51-14.54,12.47-20.69,20.04
		C275.56,135.21,271.06,142.19,267.24,148.85z"/>
	<path class="st1" d="M265.2,143.19c8.69-15.3,21.93-27.24,34.64-39.15c10.12-9.48,23-15.73,36.64-18.11
		c13.55-2.37,27.71-0.95,40.53,4.04c15.1,5.88,27.25,16.97,38.08,28.74c22.86,24.86,42.62,55.99,40.08,91.23
		c-0.96,13.29-5.83,25.93-13.94,36.5c-10.34,13.48-24.67,22.69-40.13,29.31c-8.34,3.57-16.93,6.53-25.44,9.65
		c-8.85,3.25-17.58,6.82-26.39,10.18c-17.83,6.8-36.02,12.14-50.91,24.58c-10.84,9.05-19.16,20.24-20.54,34.67
		c-1.49,15.64,4.97,30.98,11.18,44.95c3.87,8.7,8.1,17.21,12.41,25.7c4.2,8.26,8.78,16.51,12.21,25.12
		c5.05,12.66,3.79,26.3-2.91,38.1c-8.97,15.79-23.48,26.16-37.94,36.44c-7.74,5.5-15.36,11.18-23.84,15.51
		c-6.77,3.46-13.7,6.65-20.86,9.25c-27.27,9.9-63.12,9.93-82.4-15.2c-9.47-12.34-14.15-28.69-16.35-43.88
		c-2.23-15.39-1.54-31.04,0.69-46.39c2.36-16.19,6.63-31.67,13.71-46.46c7.02-14.66,16.03-28.25,25.51-41.41
		c9.8-13.6,19.2-27.49,26.67-42.54c7.75-15.61,12.05-32,16.73-48.69c6.3-22.5,13.39-44.87,23.1-66.16
		C244.46,180.06,254.84,161.46,265.2,143.19z"/>
	<path class="st0" d="M262.34,248.26c-6.59-27.9,3.66-52.23,15.53-76.5c7.96-16.27,17.97-31.23,31.95-42.15
		c26.43-20.64,48.94-23.56,78.41-0.72c17.55,13.6,28.19,32.8,31.67,54.47c3.03,18.83-2.64,35.93-17.89,49.29
		c-14.83,12.99-32.47,19.36-50.9,24.57c-19.57,5.52-39.15,10.14-59.8,8.83c-12.85-0.82-22.83-5.19-28.61-17.18"/>
	<path class="st0" d="M39.38,639.35c-2.7-7.96-5.83-15.81-8-23.91c-5.06-18.88-6.15-38.3-6.72-57.73
		c-1.19-40.52-4.97-80.78-15.55-120C4.95,422.3,1.3,407,0.58,391.1c-0.91-20.24,6.34-37.3,21.76-50.39
		c12.04-10.22,24.81-19.56,37.05-29.55c21.13-17.24,40.93-35.98,56.22-58.64c20.61-30.55,40.31-61.73,60.03-92.88
		c11.14-17.6,20.97-36.05,32.4-53.46c14.5-22.09,30.7-42.99,49.42-61.72c5.95-5.95,13.48-10.29,19.9-15.82
		c7.23-6.23,15.43-10.54,23.91-14.81c22.33-11.25,45.49-16.15,70.31-11.69c27.16,4.88,49.34,19.78,71.26,35.32
		c17.96,12.74,35.19,26.5,55.92,35.07c12.38,5.12,24.84,6.79,37.87,6.2c11.93-0.54,23.83-1.91,35.76-2.05
		c19.88-0.23,37.92,6.53,54.72,16.58c21.54,12.87,41.43,27.98,60.51,44.33c19.22,16.48,36.56,34.39,47.97,57.14
		c9.81,19.55,6.73,41.87-10.28,56.76c-17.64,15.44-38.64,22.6-61.1,26.73c-12.1,2.22-24.12,5.27-36.33,6.51
		c-36.01,3.63-48.43,30.4-47.6,57.3c0.59,18.92,4.43,37.13,8.09,55.43c8.01,39.99,17.74,79.63,19.8,120.63
		c1.09,21.73,0.67,43.15-3.12,64.65c-3.01,17.14-7.24,33.75-14.04,49.78c-9.41,22.18-26.78,33-49.75,37.24
		c-40.59,7.49-81.06,5.94-121.71,0.63c-24.83-3.24-49.79-6.04-74.78-7.51c-24.01-1.42-47.94,0.85-71.77,4.92
		c-18.56,3.17-37.42,4.65-56.16,6.69c-33.53,3.66-67.04,7.4-100.61,10.67c-19.85,1.93-38.44-1.91-53.98-15.39
		c-9.59-8.31-16.19-19.01-22.53-29.84"/>
	<path class="st0" d="M54.48,610.27c-2.3-8.21-5.58-16.28-6.7-24.65c-2.9-21.58-4.91-43.29-7.14-64.96
		c-2.08-20.21-3.86-40.45-6.01-60.65c-2.7-25.27-8-50.32-1.47-75.94c4.24-16.63,13.15-30.28,24.71-41.99
		c24.11-24.41,48.3-48.8,67.92-76.97c15.11-21.71,28.09-44.91,41.9-67.52c16.32-26.72,32.63-53.45,48.75-80.3
		c12.99-21.64,28.55-41.38,46.11-59.3c11.14-11.37,23.88-21.46,38.29-28.77c34.76-17.65,69.36-17.76,103.87,1.17
		c21.1,11.57,39.19,27.15,57.87,41.98c17.66,14.02,35.34,27.95,56.79,35.99c13.11,4.92,26.77,6.52,40.54,5.46
		c41.05-3.14,73.9,14.57,103.01,40.77c8.64,7.78,15.92,17.61,21.94,27.64c8.57,14.27,12.08,29.93,1.59,45.05
		c-6.9,9.94-17.35,15.76-28.88,18.53c-12.23,2.94-24.75,4.99-37.25,6.46c-12.65,1.49-25.37,3.37-36.61,9.03
		c-12.01,6.05-19.51,17.18-24.63,29.61c-7.88,19.13-6.52,38.78-2.01,58.18c8.01,34.47,17.21,68.67,25.21,103.15
		c6.63,28.57,9.65,57.74,7.17,86.97c-1.66,19.59-6.44,38.96-16.41,56.23c-5.21,9.03-12.36,16.72-20.98,23.29
		c-20.07,15.3-43.03,20.52-67.44,23.33c-27.33,3.14-54.36,0.79-81.48-1.33c-25.78-2.02-51.62-3.01-77.34-0.79
		c-21.59,1.87-43,5.91-64.5,8.88c-25.74,3.54-51.4,7.32-77.48,8.41c-20.66,0.86-41.26,1.67-61.8-0.4
		c-17.62-1.77-34.95-6.25-47.81-19.2c-7.67-7.71-12.96-17.78-19.33-26.78"/>
	<path class="st0" d="M61.12,599.59c-2.47-8.93-5.76-17.72-7.22-26.81c-2.45-15.29-4.05-30.75-5.44-46.18
		c-2.35-26.18-4.03-52.42-6.42-78.59c-1.67-18.24-3.24-36.53,0.5-54.55c3.48-16.74,11.42-31.6,22.68-44.65
		c15.92-18.43,32.09-36.69,47.37-55.65c16.07-19.94,30.51-41.05,42.57-63.79c7.79-14.7,16.89-28.7,25.42-43
		c12.73-21.31,25.3-42.71,38.26-63.88c14.28-23.33,30.99-45.02,50.79-63.72c10.38-9.79,21.94-18.9,35.86-24.76
		c10.6-4.47,21.06-8.38,32.33-10.33c18.63-3.23,36.03,0.28,53.42,7.43c23.94,9.85,42.75,26.65,62.34,42.6
		c16.43,13.38,32.7,27.03,49.92,39.32c20.18,14.41,43.16,20.6,68.16,20.16c27.55-0.49,51.94,8.68,72.66,26.95
		c10.45,9.22,18.4,20.29,23.22,33.54c3.1,8.5-1.4,21.65-7.27,27.06c-10.92,10.06-24.35,11.52-37.76,13.8
		c-11.7,2-23.59,3.21-35.07,6.1c-16.86,4.25-27.2,16.52-35.15,31.27c-14.94,27.71-11.82,56.22-3.81,84.86
		c6.47,23.14,13.55,46.11,20.19,69.2c7.15,24.88,11.46,50.29,12.97,76.12c1.48,25.24-1.43,49.86-11.78,73.26
		c-7.81,17.67-20.33,31.04-37.22,40.07c-14.73,7.88-30.84,12.15-47.29,14.19c-29.52,3.65-59.1,0.98-88.66-0.48
		c-26.13-1.29-52.25-1.86-78.3,2.56c-29.58,5.02-59.27,9.51-89,13.52c-33.23,4.48-66.66,6.21-100.07,2.17
		c-19.58-2.37-38.44-7.69-52.02-23.21c-6.26-7.15-10.63-15.96-15.86-24.01"/>
	<path class="st1" d="M68.76,593.25c-2.42-8.41-5.29-16.72-7.18-25.24c-4.62-20.86-5.9-42.11-7.02-63.39
		c-0.74-14.11-2.62-28.15-3.56-42.26c-1.35-20.2-2.86-40.43,0.61-60.6c4.27-24.81,17.37-44.91,33.49-63.52
		c27.18-31.37,51.75-64.65,72.56-100.63c22.23-38.46,43.93-77.24,67.02-115.17c14.57-23.93,32.1-46.04,53.54-64.3
		c22.1-18.82,47.46-30.81,77.37-29.57c15.41,0.64,29.67,5.52,43.48,12.64c20.55,10.59,37.35,25.87,54.6,40.74
		c19.41,16.72,38.38,34.05,58.77,49.5c19.31,14.63,40.26,26.26,65.87,27.56c16.58,0.84,32.9,4.95,46.01,16.74
		c7.05,6.34,10.03,15.79,6.42,24.01c-3.71,8.44-12.41,8.72-19.82,10.5c-6.4,1.54-13.05,2.05-19.58,3.11
		c-15.21,2.46-26.31,11.49-35.06,23.34c-11.52,15.59-19.52,33.22-23.97,51.93c-4.49,18.87-3.13,38.17,2.64,56.73
		c5.2,16.7,11.92,32.93,17.03,49.65c5.85,19.12,11.58,38.37,15.71,57.91c4.87,23.02,7.63,46.37,5.59,70.14
		c-1.99,23.26-7.58,45.02-23.43,62.78c-8.04,9.01-17.81,15.65-29.13,21c-30.94,14.65-63.5,13.38-96.16,12.47
		c-31.11-0.86-62.23-3.43-93.23,1.33c-21.79,3.35-43.67,6.31-65.28,10.58c-39.77,7.85-79.78,12.37-120.26,9.21
		c-12.26-0.96-24.53-4.3-36.31-8.08c-19.39-6.23-31.25-21.11-40.36-38.52"/>
	<path class="st0" d="M74.93,584.5c-1.53-4.28-3.58-8.45-4.49-12.86c-2.2-10.6-4.54-21.24-5.62-31.98
		c-2.54-25.32-5.23-50.67-6.24-76.07c-0.84-21.14-1.73-42.31,3.3-63.48c4.92-20.74,15.2-38.15,27.72-54.65
		c21.19-27.94,44-54.72,61.2-85.51c11.91-21.32,23.66-42.74,35.73-63.97c9.57-16.85,19.25-33.65,29.36-50.18
		c13.27-21.7,27.04-43,44.14-62.13c13.83-15.46,28.84-29.31,47.31-38.48C336.3,30.8,365.6,30.44,395,45.38
		c23.97,12.18,43.17,30.24,62.47,48.27c18.06,16.86,35.81,34.05,53.73,51.06c12.96,12.3,25.9,24.56,34.25,40.8
		c3.54,6.88,4.18,13.99,1.95,20.94c-5.56,17.26-11.85,34.28-17.73,51.45c-7.25,21.15-14.63,42.51-10.75,65.25
		c2.16,12.64,5.88,25.2,10.46,37.21c11.22,29.45,23.53,58.47,30.1,89.49c6.46,30.53,10.22,61.1,2.02,91.9
		c-4.17,15.67-11.33,30.05-23.64,40.69c-12.69,10.97-27.82,17.9-44.3,21.79c-25.64,6.04-51.58,4.53-77.56,4.04
		c-22.48-0.43-45.14-1.61-67.42,0.59c-25.24,2.49-50.27,7.79-75.17,12.92c-35.5,7.33-71.03,13.22-107.49,11.61
		c-18.13-0.8-35.96-3.04-52.81-9.79c-12.03-4.82-22.16-12.67-29.01-24.1c-2.89-4.82-5.88-9.58-8.82-14.37"/>
	<path class="st0" d="M333.5,189.65c0.49-2.78,0.31-5.94,1.64-8.23c1.93-3.35,4.75-6.75,9.4-5.9c3.78,0.7,8.75,0.51,9.8,5.39
		c1,4.64-0.47,8.75-5.1,11.55c-6.92,4.18-10.88,3.83-15.37-2.2"/>
	<path class="st2" d="M289.96,218.08c-3.14-25.68,6.18-47.23,23.4-65.3c17.51-18.37,38.19-24.8,60.03-8.92
		c20.96,15.23,31.15,43.56,14.84,66.47c-6.66,9.36-16.18,14.92-26.86,19.35c-13.7,5.68-27.62,8.93-42.27,7.4
		c-6.49-0.68-13.41-2.42-18.9-5.73c-4.28-2.58-6.65-8.33-9.87-12.67"/>
	<path class="st2" d="M85.51,582.94c-2.27-5.48-5.1-10.8-6.67-16.47c-2.19-7.91-4.04-16-4.98-24.14
		c-2.39-20.7-4.75-41.43-6.03-62.22c-0.96-15.6-0.46-31.32-0.16-46.97c0.58-30.92,11.53-57.85,29.63-82.92
		c19.49-27.01,40.78-52.85,56.73-82.34c10.38-19.18,21.24-38.11,31.47-57.37c17.31-32.6,35.28-64.85,56.18-95.27
		c11.07-16.11,23.12-31.76,38.86-43.91c7.63-5.89,14.78-12.74,23.16-17.29c23.3-12.64,47.62-17.29,73.96-8.8
		c24.29,7.83,43.43,22.91,61.38,39.96c14.49,13.76,28.68,27.87,42.46,42.34c7.46,7.84,13.97,16.64,20.57,25.26
		c4.99,6.51,9.53,13.37,14.12,20.18c10.67,15.86,13.04,33.43,8.49,51.54c-5.66,22.49-13.11,44.53-18.69,67.04
		c-4.91,19.84-4.34,39.62,5.22,58.48c5.97,11.76,11.61,23.69,17.03,35.71c11.97,26.57,21.67,53.91,26.22,82.83
		c3.74,23.77,3.7,47.41-3.56,70.63c-5.01,16.03-14.51,28.55-28.41,38.26c-21.49,15.01-45.94,18.17-70.96,18.58
		c-23.57,0.38-47.15-0.76-70.73-0.82c-23.61-0.06-46.86,3.57-69.89,8.38c-25.44,5.31-50.54,12.51-76.14,16.7
		c-32.96,5.4-66.24,7.96-99.37-0.37c-21.56-5.42-38.34-17.02-49.54-36.38"/>
	<path class="st2" d="M45.46,622.41c-1.72-6.37-3.13-12.84-5.2-19.08c-6.61-19.89-5.85-40.68-7.82-61.14
		c-2.13-22.1-3.6-44.27-6.3-66.3c-3.04-24.77-8.37-49.31-10.44-74.14c-2.04-24.38,7.77-45.09,26.08-61.6
		c21.35-19.27,43.73-37.68,61.97-59.93c14.85-18.11,27.93-37.81,40.46-57.65c24.54-38.87,47.65-78.64,72.32-117.43
		c14.19-22.31,30.14-43.59,51.03-60.34c10.06-8.07,20.21-16.46,31.51-22.46c23.59-12.52,48.38-18.07,75.59-11.63
		c25.31,5.99,46.05,19.44,66.36,34.47c19.22,14.21,37.38,29.89,59.23,40.42c13.94,6.72,28.19,9.19,43.44,8.73
		c13.24-0.4,26.51-0.2,39.75,0.27c14.36,0.5,27.34,5.99,39.89,12.51c25.09,13.04,46.77,30.85,66.3,50.86
		c12.8,13.11,23.98,28.15,27.85,47.12c3.09,15.12-5.19,33.47-17.68,42.42c-18.32,13.13-39.18,17.98-60.75,20.43
		c-15.7,1.79-31.42,3.66-45.63,10.5c-8.33,4.01-14.33,11.8-18.86,20.25c-8.21,15.32-8.56,31.97-5.54,48.09
		c6.26,33.39,14.46,66.42,21.3,99.71c6.1,29.65,10.75,59.48,9.37,90c-1.15,25.29-5.63,49.72-16.52,72.66
		c-5.72,12.04-14.11,21.79-25.62,29.3c-16.76,10.94-35.1,15.83-54.59,18.63c-31.2,4.47-62.18,2.42-93.16-1.45
		c-38.69-4.83-77.43-6.13-116.14-1.02c-40.2,5.3-80.23,12.17-120.82,13.93c-19.5,0.84-39.02,1.15-58.53,1.37
		c-15.84,0.19-30.29-4.72-43.11-13.89c-8.05-5.75-13.96-13.57-18.76-22.23c-2.04-3.68-4.39-7.2-6.6-10.79"/>
	<path class="st0" d="M301.47,212.65c-7.46-23.07,9.83-54.72,32.46-65.22c12.91-5.99,27.88-3.69,39.02,7.27
		c11.97,11.79,17.14,25.97,11.17,42.39c-1.88,5.16-5.17,10.75-9.45,13.92c-16.96,12.54-35.22,20.89-57.31,14.26
		c-7.04-2.11-12.09-5.76-15.51-12.03"/>
	<path class="st0" d="M279.47,227.83c-4.36-25.78,5.02-47.8,18.93-68.49c6.95-10.34,15.16-19.81,26.14-25.84
		c21.98-12.07,42.53-8.86,61.68,10.57c9.57,9.71,15.14,21.52,18.48,34.88c3.4,13.63-3.01,35.7-17.77,46.58
		c-24.09,17.76-51.21,23.31-80.13,22.45c-12.86-0.39-21.76-7.81-26.97-19.55"/>
	<path class="st0" d="M431.61,480.62c-0.55-4.93-0.86-9.64,4.91-12.14c6.33-2.75,12.51-1.71,18,1.47c3.52,2.05,2.55,6.3,1.29,9.8
		c-1.61,4.46-5.83,5.98-9.54,5.64c-4.85-0.44-9.53-2.7-14.29-4.17"/>
	<path class="st0" d="M270.9,238.05c-5.98-26.46,3.98-49.34,16.09-71.73c6.5-12.02,15.19-22.44,25.01-31.77
		c20.12-19.1,51.02-19.4,72.68-1.09c15.17,12.83,24.99,29.17,28.01,48.63c2.72,17.58-2.39,33.29-16.22,45.6
		c-19.42,17.28-43.49,22.87-67.92,27.7c-9.9,1.96-19.8,1.85-29.88,1.23c-12.93-0.79-21.93-6.4-27.41-17.96"/>
	<path class="st0" d="M313.16,202.16c-3.26-17.61,4.11-31.25,17.66-41.05c13.41-9.7,25.27-7.57,36.28,2.98
		c9.56,9.16,10.35,26.15,1.99,36.56c-10.65,13.26-31.08,18.62-45.69,12.34c-4.01-1.73-6.62-6.73-9.87-10.23"/>
	<path class="st0" d="M253.04,257.28c-5.5-23.09,1.62-44.76,9.4-65.62c8.52-22.84,20.93-44.05,38.81-61.2
		c14.37-13.79,30.51-24.51,51.84-22.93c17.26,1.28,31.33,9.62,43.38,21.19c14.46,13.88,25.02,30.78,29.16,50.36
		c4.59,21.73,0.68,42.26-18.69,58.86c-16.13,13.82-35.28,20.44-54.96,25.93c-17.81,4.97-35.92,9.01-54.08,12.58
		c-6.88,1.35-14.28,0.59-21.4,0.13c-11.94-0.76-18.27-8.92-23.1-18.7"/>
	<path class="st2" d="M242.63,275.22c-5.51-23.27,0.28-45.19,7.2-67.23c6.6-21.02,16.46-40.29,28.49-58.52
		c8.1-12.28,17.92-23,29.36-32.55c9-7.51,18.81-11.9,29.8-14.66c13.7-3.44,26.75-1.38,39.19,4.8c15.17,7.53,26.45,19.31,36.82,32.55
		c11.28,14.4,18.28,30.37,20.91,48.12c2.91,19.67-4.4,42.56-21.8,56.73c-18.98,15.45-41.68,21.66-63.95,28.71
		c-22.41,7.1-45.53,12.01-68.42,17.55c-5.03,1.22-10.41,1.49-15.62,1.39c-10.95-0.22-17.22-7.13-21.62-16.29"/>
	<path class="st0" d="M233.33,305.68c-7.39-29.67-2.02-58.17,6.69-86.76c8.25-27.05,21.05-51.64,36.53-75
		c12.18-18.38,27.62-33.6,47.63-43.17c17.59-8.41,35.86-7.35,53.25,0.95c19.61,9.36,34,24.54,45.56,42.82
		c9.56,15.12,17.45,30.66,18.37,48.9c1.16,23.16-6.29,42.07-25.08,57.02c-14.21,11.3-30.54,17.05-47.08,22.7
		c-25.52,8.73-51.36,16.52-76.88,25.27c-13.02,4.46-25.57,10.29-38.45,15.19c-9.77,3.72-14.59,1.77-20.18-7.32"/>
	<path class="st0" d="M188.82,466.64c-2.36-8.04-1.38-15.89,1.04-23.75c3.29-10.71,12.03-15.14,21.71-9.86
		c3.14,1.71,6.19,6.08,6.69,9.6c1.2,8.37,1.48,16.88-4.41,24.41c-7.57,9.67-17.74,9.5-24.66,0.2"/>
	<path class="st0" d="M165.71,490.75c-1.62-5.32-4.33-10.57-4.69-15.98c-2.03-30.32,5.35-57.69,27.56-79.63
		c10.57-10.44,24.62-12.84,34.65-6.51c2.66,1.67,5.41,3.75,7.12,6.3c12.33,18.41,23.22,37.42,21.84,60.78
		c-1.01,17.04-7.76,30.87-21.06,42.11c-8.74,7.39-17.9,13.05-29.17,14.23c-16.72,1.75-28.41-6.01-35.88-20.71"/>
	<path class="st2" d="M152.54,498.84c-4.7-15.35-6.37-31.01-4.09-46.94c3.36-23.47,10.8-45.42,25.56-64.36
		c10.83-13.9,23.31-26.07,38.5-35.27c9.36-5.67,21.08-1.57,25.1,8.51c2.8,7.01,6.03,13.85,9.35,20.63
		c9.39,19.19,19.57,38.25,24.41,59.09c5.21,22.39-0.07,43.19-16.19,60.31c-13.84,14.7-30.47,25.62-50.42,29.04
		c-14.03,2.41-28.35-0.4-38.92-11.21c-5.3-5.43-8.68-12.74-12.93-19.2"/>
</g>
</svg>
