<svg xmlns="http://www.w3.org/2000/svg" opacity="0.25" transform="rotate(180)" viewBox="300 100 741.6 686.1"><style type="text/css">

		.st0{fill-rule:evenodd;clip-rule:evenodd;fill:none;stroke:#000000;stroke-width:1.0098;stroke-linecap:round;stroke-linejoin:round;stroke-miterlimit:10;}

		.st1{fill-rule:evenodd;clip-rule:evenodd;fill:none;stroke:#8B8B8B;stroke-width:6.0587;stroke-linecap:round;stroke-linejoin:round;stroke-miterlimit:10;}

		.st2{fill-rule:evenodd;clip-rule:evenodd;fill:none;stroke:#B8B8B8;stroke-width:4.0391;stroke-miterlimit:10;stroke-dasharray:24.2347,8.0782,24.2347,8.0782,24.2347,8.0782;}
</style><path class="st0" d="M244.8 119c-11.3 18.4-23.1 36.5-33.6 55.3 -15.9 28.7-30.8 58-46.5 86.9 -16 29.6-35.5 56.9-55.5 83.9C93.8 366 81.7 388.9 77.1 415c-3.1 17.5-3.4 35.2-2.8 52.9 0.6 16.4 1.3 32.9 3.2 49.2 1.7 14.7 3.1 29.9 8.2 43.6 8.6 23.4 22.6 42.5 49 50 27.8 7.9 55.6 8.9 83.7 4.3 21.9-3.6 43.9-7.4 65.3-13.1 28.6-7.7 57.2-15.2 86.9-16.6 20-0.9 40.2-0.4 60.2 0 20.8 0.3 41.5 0.6 61.6-5.7 26.1-8.2 44.5-24 52-51 7.9-28.5 4-56.5-3.1-84.6 -8.3-32.5-25.6-60.3-42.8-88.3 -9.3-15.1-13.6-31.5-8.3-49.4 7.4-24.8 15.1-49.5 21.7-74.5 6-22.7 1.9-44.2-10.5-64.3 -13.8-22.6-30.8-42.4-49.1-61.4 -13.1-13.6-26.5-26.6-41.7-37.8C387.4 50.9 362 42 333.1 48.2c-17.7 3.8-32.8 13-46.8 24.4 -15.3 12.3-27.7 26.9-38.7 43L244.8 119z"/><path class="st0" d="M256.6 110.1c1.6-2.3 6.1-7.8 7.9-9.9 11.1-13 23.2-25 37.8-33.8 28-17 57.3-20.2 87.5-5.3 18.1 8.9 33.3 21.7 47 36.3 9.7 10.2 20.1 20 28.7 31 12.1 15.5 22.9 32 31.2 50.1 10.5 22.8 8.2 45.2 1.7 68.4 -6.8 24.5-18.6 46.7-29 69.7 -8.4 18.6-5.1 25.9 7.9 39.5 9.6 10 19 19.9 27.4 31 19.5 26 29.7 55.3 34.3 87 3.5 24.6 1.1 48.2-12.7 69.4 -7.3 11.3-18.7 18.3-31 23.2 -23.9 9.5-49.1 7.9-74.1 6.9 -20.6-0.8-41.1-1-61.7 1.5 -19.6 2.4-38.6 7.2-57.5 12.5 -33 9.2-65.7 19.7-100.2 22.1 -24 1.7-47.3-0.3-69.8-9.1 -11.8-4.6-21-12.7-28.2-23 -11.5-16.4-16-35.2-18.6-54.5 -3.6-27-4.6-54.1-3.2-81.4 1.7-34.7 14.2-64.9 34.3-93 25.9-36.1 49.5-73.8 68.6-114.2 11.6-24.4 25.2-47.9 38.4-71.6 7.9-14.3 16.8-28 25.3-42L256.6 110.1z"/><path class="st1" d="M266 106c9.5-9.7 15.6-17.2 25.4-26.4 24.7-23.3 64-28.8 96.2-13.9 18.2 8.4 32.8 21.6 46.6 35.7 12.6 12.9 23.5 27.1 34.3 41.5 12.6 16.9 21.5 34.9 25.2 55.4 1.4 7.9 2.1 16.3 0.8 24.1 -4.7 29.6-15.4 56.6-35.9 79.3 -10.5 11.7-22.7 20-37.6 24.7 -9.5 3-19 6.5-28 10.7 -7.5 3.5-14.3 8.5-16.5 17.4 -1.9 7.7-0.4 11.5 6.4 15.8 10.9 6.9 22.8 6.2 34.7 4.2 16.4-2.8 32.5-5.2 49 0.3 12.1 4 21.9 11.1 29.7 20.7 6.4 7.8 11.9 16.3 17.1 24.9 9 14.9 13.5 31.5 16.5 48.3 2.5 13.5 2.2 27.3-0.6 40.7 -4 19.3-14.4 34.7-32.3 43.8 -14.9 7.5-31.2 9.8-47.7 9.6 -23.7-0.3-47.4-2.2-71.1-1.2 -16.8 0.8-33.7 4.1-50 8.4 -26.3 6.8-52.2 15-78.1 23.1 -24.1 7.5-48.5 10.6-73.7 9 -17-1.1-33.1-4.5-47.9-13.5 -12.6-7.7-20.8-18.6-26.7-32.3 -10.5-24.2-11.9-49.6-13.2-75.2 -0.8-16.3-0.5-32.5 1.5-48.7 2.8-22 8.7-43.1 20.6-62 13.8-21.9 29.3-42.8 42.2-65.1 15-26 28.5-52.9 41.7-79.9 15.1-30.9 31.4-61 49.4-90.3 4.6-7.5 10.5-14.1 15.6-21.4L266 106z"/><path class="st0" d="M283 107.6c7.2-6.1 13.5-13.3 21.1-18.9 5.7-4.1 12.1-7.4 18.6-10 11.6-4.6 24.2-6.5 36.5-4.9 13.4 1.7 26 7.3 37 14.9 14.9 10.3 27.5 22.8 38.5 37.2 5.8 7.6 12.1 15 17.1 23.2 4.1 6.6 7.6 13.7 10.5 20.9 5.6 13.6 9 28.2 8 43 -1 15.3-6.4 30.6-15.2 43.2 -9.5 13.7-23 23.5-37.8 30.7 -16.7 8.1-34.6 13.4-52 19.7 -15.9 5.8-30.8 13.1-42.7 25.5 -7.1 7.4-12.4 16.4-13.1 26.8 -0.8 12.6 4.7 24.9 10.9 35.5 8.2 13.9 19.7 25.7 33.5 34.1 13.8 8.4 28.3 12.8 44.5 11.7 16.1-1.1 31.6-6.4 47.7-6.7 7.2-0.1 14.7 0.4 21.2 3.8 5.6 2.9 10.4 7.4 14.1 12.4 7.7 10.3 11.5 22.9 9.6 35.6 -2.2 14.4-11.3 25.4-25.1 29.9 -16.5 5.5-34.9 1.4-51.7-0.5 -17.7-1.9-35.1-4-52.5 0.6 -8.6 2.3-16.7 6-24.8 9.7 -8.7 4-17.4 8.2-26.1 12.4 -16.7 8-33.3 16.3-50.3 23.6 -29.1 12.4-63.1 21.9-94.6 13.2 -15.5-4.3-29.2-12.8-37.9-26.5 -8.4-13.3-12.8-29.7-15.5-45.1 -5.3-30.3-1.8-61.3 6.2-90.8 9.1-33.4 32.4-60.7 50-89.8 9.4-15.5 17.5-31.5 24.4-48.2 7.3-17.8 14.6-35.7 22.2-53.4 7.4-17.2 15.4-33.9 24.7-50.3 4.1-7.2 11.4-20.5 16.3-27.2 9.7-13.3 14.6-21.2 25.5-33.6C282.3 108.6 282.6 108.1 283 107.6z"/><path class="st2" d="M255.3 134.8c-4.6 7.4-9.1 14.8-13.5 22.3 -16 27-29.2 55.3-41.6 84 -8.6 19.9-17.3 39.7-27.4 58.8 -9.1 17.1-20.2 33-30.4 49.5 -11.1 17.9-22.5 35.5-29.4 55.8 -7.5 22.2-9.8 45-9.7 68.1 0.1 19.2 1.8 38.4 7.6 57 10.3 33 31.7 51.9 66.7 54.7 25.6 2.1 50.3-1.8 74.1-11 20.8-8 41.4-16.8 62.2-24.9 21.3-8.3 42.8-16.8 65.9-17.3 17-0.3 34 1.4 51 2.3 13.6 0.7 27 1 40.5-2.4 19.4-4.9 33-21.3 35.2-39.9 1.4-11.9 0.5-23.1-3.1-34.5 -10.9-34.4-35.4-48.9-70.7-42.4 -16.1 3-32.2 6-48.9 3.9 -16.2-2-29.1-9.7-40.5-20.6 -8.3-7.9-13.8-17.1-16.4-28.8 -3.1-13.9 1.8-24.7 10.5-34.3 13.5-14.9 32.3-20.1 50.2-26.9 15.1-5.7 30.5-11.1 44.6-18.6 18.3-9.7 30.7-25.3 38.6-44.7 7.6-18.5 9-37.4 4.5-56.6 -2.3-9.9-6.9-19.1-11-28.5 -4.9-11.1-12.1-20.3-19.1-29.5 -17.6-23.5-37.6-44.9-65.6-56 -19.4-7.7-39-8.6-58.9 0.4 -16 7.2-29.4 17.2-40.7 30.3L255.3 134.8z"/><path class="st0" d="M272.2 106.1c12.4-15.5 27.9-27.6 45.6-35.8 25.7-12 51.3-9.3 75.7 5.1 18.7 11 34.3 25.5 47.6 42.5 8.9 11.3 18.6 22.1 25.8 34.4 11.4 19.5 19.9 40.1 18.4 63.9 -1.9 29.4-13.5 54.3-35 73.6 -10 9-23.3 14.9-35.8 20.7 -13 6-26.6 10.6-40.3 15 -8.9 2.9-15 8.7-21.5 14.9 -12.1 11.5-11.9 33.5 3.8 46.5 13.2 11 28.1 16.1 45.1 14.2 12.9-1.5 25.7-4.5 38.6-5.3 21-1.4 39.9 3 54.4 20.8 17.3 21.3 25.1 45.4 24.4 72.4 -0.4 16.3-4.6 31.5-17.3 42.8 -10.3 9.2-22.7 14.1-36.4 15.9 -21.1 2.9-42.1 0-63.1-0.9 -30.3-1.4-58.9 4.9-87.4 14.8 -28 9.7-55.3 21.5-84.5 27.7 -27.6 5.8-54.8 7.1-81.8-1.9 -10.7-3.6-19.7-10-27.3-18.6 -15.5-17.3-19.4-38.7-22.3-60.5 -3.1-23.5-3.7-47-0.6-70.6 3.2-24.4 10.2-47.5 23.2-68.5 12.1-19.6 25.6-38.4 37.6-58 15.7-25.5 27.6-53 39.8-80.3 14.9-33.2 32.1-65.2 51.4-96L272.2 106.1z"/><path class="st0" d="M273.8 124.8c5.9-6.7 11.2-14 17.8-20 6.1-5.5 12.5-10.6 19.5-14.9 14.1-8.6 30.1-13 46.6-11.2 32.6 3.5 58.5 29.1 77.2 54.1 17.2 23.1 31.1 51.7 27.9 81.3 -1.5 13.9-6.7 28.1-15.1 39.3 -10.8 14.6-27.9 23.6-44.2 30.6 -32 13.6-68.7 19-94.1 44.6 -7.2 7.3-12.7 16-14 26.3 -1.8 14.2 3.2 29.3 9.4 41.9 8.6 17.1 21.8 30.6 33.2 45.7 5.7 7.5 11.5 15.1 16.6 23 3.5 5.4 3.6 12 0.8 17.6 -3.5 7.2-10.9 12.1-17 16.9 -7.5 6-15.4 11.6-23.4 16.9 -15.9 10.7-32.5 20.3-49.2 29.8 -28.3 16-61 25.6-93.6 18.9 -15.6-3.2-28.1-11.1-37-24.4 -9.6-14.3-13.4-31.1-15.5-48 -3.5-27.7-1.1-56 8.1-82.5 4.7-13.5 10.9-26.3 18.5-38.4 9.6-15.5 20.6-30 29.9-45.7 19.1-32.2 30.1-68.1 43.7-102.7 9.7-24.7 20.4-49 35.2-71.1C261.3 143.4 266.5 134.1 273.8 124.8z"/><path class="st0" d="M267.2 148.9c-8.7 16.3-17.9 32.3-25.4 49.2 -6.9 15.5-12.4 31.7-16.5 48.2 -4 16.1-5.6 32.7-9.4 48.8 -3.6 15.6-9.5 30.4-19 43.4 -5.7 7.8-11.4 15.5-17.2 23.2 -5.6 7.5-11.8 14.6-17.2 22.2 -9.6 13.6-16.1 29.5-20.5 45.5 -4.4 15.7-5.9 32.1-4.6 48.4 1.3 16.5 4.9 33.7 15.2 47 18.2 23.6 50.6 22.9 76 12.5 15.7-6.4 30.3-17.2 42.5-29 11.5-11.1 20.4-25.3 22-41.5 1.5-15.4-4-29.7-9.9-43.6 -7.2-16.8-15.4-33.3-19.8-51.1 -3.2-12.9-4.1-26.4 3.1-38.1 7.7-12.7 21.7-21.6 34.6-28.2 16.8-8.6 35-13.9 52.9-19.8 9.1-3 18.1-6.1 27.1-9.5 8.6-3.2 17.3-6.3 25.5-10.5 15.3-7.8 28.4-19.7 35.9-35.4 6.4-13.4 7.5-28.5 5.1-43 -3.1-17.9-11-34.5-21.6-49.2 -9.9-13.7-21.3-26.6-35.5-35.8 -12.9-8.4-27.8-13.7-43.4-13 -16.9 0.8-33.1 8.5-45.7 19.7 -7.3 6.5-14.5 12.5-20.7 20C275.6 135.2 271.1 142.2 267.2 148.9z"/><path class="st1" d="M265.2 143.2c8.7-15.3 21.9-27.2 34.6-39.1 10.1-9.5 23-15.7 36.6-18.1 13.6-2.4 27.7-0.9 40.5 4 15.1 5.9 27.3 17 38.1 28.7 22.9 24.9 42.6 56 40.1 91.2 -1 13.3-5.8 25.9-13.9 36.5 -10.3 13.5-24.7 22.7-40.1 29.3 -8.3 3.6-16.9 6.5-25.4 9.7 -8.8 3.3-17.6 6.8-26.4 10.2 -17.8 6.8-36 12.1-50.9 24.6 -10.8 9.1-19.2 20.2-20.5 34.7 -1.5 15.6 5 31 11.2 45 3.9 8.7 8.1 17.2 12.4 25.7 4.2 8.3 8.8 16.5 12.2 25.1 5.1 12.7 3.8 26.3-2.9 38.1 -9 15.8-23.5 26.2-37.9 36.4 -7.7 5.5-15.4 11.2-23.8 15.5 -6.8 3.5-13.7 6.7-20.9 9.3 -27.3 9.9-63.1 9.9-82.4-15.2 -9.5-12.3-14.1-28.7-16.3-43.9 -2.2-15.4-1.5-31 0.7-46.4 2.4-16.2 6.6-31.7 13.7-46.5 7-14.7 16-28.2 25.5-41.4 9.8-13.6 19.2-27.5 26.7-42.5 7.8-15.6 12.1-32 16.7-48.7 6.3-22.5 13.4-44.9 23.1-66.2C244.5 180.1 254.8 161.5 265.2 143.2z"/><path class="st0" d="M262.3 248.3c-6.6-27.9 3.7-52.2 15.5-76.5 8-16.3 18-31.2 32-42.1 26.4-20.6 48.9-23.6 78.4-0.7 17.6 13.6 28.2 32.8 31.7 54.5 3 18.8-2.6 35.9-17.9 49.3 -14.8 13-32.5 19.4-50.9 24.6 -19.6 5.5-39.1 10.1-59.8 8.8 -12.8-0.8-22.8-5.2-28.6-17.2"/><path class="st0" d="M39.4 639.4c-2.7-8-5.8-15.8-8-23.9 -5.1-18.9-6.1-38.3-6.7-57.7 -1.2-40.5-5-80.8-15.5-120C5 422.3 1.3 407 0.6 391.1c-0.9-20.2 6.3-37.3 21.8-50.4 12-10.2 24.8-19.6 37.1-29.5 21.1-17.2 40.9-36 56.2-58.6 20.6-30.5 40.3-61.7 60-92.9 11.1-17.6 21-36 32.4-53.5 14.5-22.1 30.7-43 49.4-61.7 6-5.9 13.5-10.3 19.9-15.8 7.2-6.2 15.4-10.5 23.9-14.8 22.3-11.2 45.5-16.1 70.3-11.7 27.2 4.9 49.3 19.8 71.3 35.3 18 12.7 35.2 26.5 55.9 35.1 12.4 5.1 24.8 6.8 37.9 6.2 11.9-0.5 23.8-1.9 35.8-2 19.9-0.2 37.9 6.5 54.7 16.6 21.5 12.9 41.4 28 60.5 44.3 19.2 16.5 36.6 34.4 48 57.1 9.8 19.6 6.7 41.9-10.3 56.8 -17.6 15.4-38.6 22.6-61.1 26.7 -12.1 2.2-24.1 5.3-36.3 6.5 -36 3.6-48.4 30.4-47.6 57.3 0.6 18.9 4.4 37.1 8.1 55.4 8 40 17.7 79.6 19.8 120.6 1.1 21.7 0.7 43.2-3.1 64.7 -3 17.1-7.2 33.8-14 49.8 -9.4 22.2-26.8 33-49.7 37.2 -40.6 7.5-81.1 5.9-121.7 0.6 -24.8-3.2-49.8-6-74.8-7.5 -24-1.4-47.9 0.9-71.8 4.9 -18.6 3.2-37.4 4.7-56.2 6.7 -33.5 3.7-67 7.4-100.6 10.7 -19.8 1.9-38.4-1.9-54-15.4 -9.6-8.3-16.2-19-22.5-29.8"/><path class="st0" d="M54.5 610.3c-2.3-8.2-5.6-16.3-6.7-24.6 -2.9-21.6-4.9-43.3-7.1-65 -2.1-20.2-3.9-40.4-6-60.6 -2.7-25.3-8-50.3-1.5-75.9 4.2-16.6 13.2-30.3 24.7-42 24.1-24.4 48.3-48.8 67.9-77 15.1-21.7 28.1-44.9 41.9-67.5 16.3-26.7 32.6-53.4 48.8-80.3 13-21.6 28.6-41.4 46.1-59.3 11.1-11.4 23.9-21.5 38.3-28.8 34.8-17.6 69.4-17.8 103.9 1.2 21.1 11.6 39.2 27.2 57.9 42 17.7 14 35.3 28 56.8 36 13.1 4.9 26.8 6.5 40.5 5.5 41.1-3.1 73.9 14.6 103 40.8 8.6 7.8 15.9 17.6 21.9 27.6 8.6 14.3 12.1 29.9 1.6 45.1 -6.9 9.9-17.3 15.8-28.9 18.5 -12.2 2.9-24.7 5-37.2 6.5 -12.6 1.5-25.4 3.4-36.6 9 -12 6.1-19.5 17.2-24.6 29.6 -7.9 19.1-6.5 38.8-2 58.2 8 34.5 17.2 68.7 25.2 103.2 6.6 28.6 9.7 57.7 7.2 87 -1.7 19.6-6.4 39-16.4 56.2 -5.2 9-12.4 16.7-21 23.3 -20.1 15.3-43 20.5-67.4 23.3 -27.3 3.1-54.4 0.8-81.5-1.3 -25.8-2-51.6-3-77.3-0.8 -21.6 1.9-43 5.9-64.5 8.9 -25.7 3.5-51.4 7.3-77.5 8.4 -20.7 0.9-41.3 1.7-61.8-0.4 -17.6-1.8-34.9-6.2-47.8-19.2 -7.7-7.7-13-17.8-19.3-26.8"/><path class="st0" d="M61.1 599.6c-2.5-8.9-5.8-17.7-7.2-26.8 -2.4-15.3-4-30.7-5.4-46.2 -2.3-26.2-4-52.4-6.4-78.6 -1.7-18.2-3.2-36.5 0.5-54.5 3.5-16.7 11.4-31.6 22.7-44.6 15.9-18.4 32.1-36.7 47.4-55.6 16.1-19.9 30.5-41 42.6-63.8 7.8-14.7 16.9-28.7 25.4-43 12.7-21.3 25.3-42.7 38.3-63.9 14.3-23.3 31-45 50.8-63.7 10.4-9.8 21.9-18.9 35.9-24.8 10.6-4.5 21.1-8.4 32.3-10.3 18.6-3.2 36 0.3 53.4 7.4 23.9 9.9 42.8 26.7 62.3 42.6 16.4 13.4 32.7 27 49.9 39.3 20.2 14.4 43.2 20.6 68.2 20.2 27.6-0.5 51.9 8.7 72.7 27 10.5 9.2 18.4 20.3 23.2 33.5 3.1 8.5-1.4 21.7-7.3 27.1 -10.9 10.1-24.3 11.5-37.8 13.8 -11.7 2-23.6 3.2-35.1 6.1 -16.9 4.3-27.2 16.5-35.1 31.3 -14.9 27.7-11.8 56.2-3.8 84.9 6.5 23.1 13.6 46.1 20.2 69.2 7.2 24.9 11.5 50.3 13 76.1 1.5 25.2-1.4 49.9-11.8 73.3 -7.8 17.7-20.3 31-37.2 40.1 -14.7 7.9-30.8 12.2-47.3 14.2 -29.5 3.7-59.1 1-88.7-0.5 -26.1-1.3-52.2-1.9-78.3 2.6 -29.6 5-59.3 9.5-89 13.5 -33.2 4.5-66.7 6.2-100.1 2.2 -19.6-2.4-38.4-7.7-52-23.2 -6.3-7.1-10.6-16-15.9-24"/><path class="st1" d="M68.8 593.3c-2.4-8.4-5.3-16.7-7.2-25.2 -4.6-20.9-5.9-42.1-7-63.4 -0.7-14.1-2.6-28.1-3.6-42.3 -1.3-20.2-2.9-40.4 0.6-60.6 4.3-24.8 17.4-44.9 33.5-63.5 27.2-31.4 51.8-64.6 72.6-100.6 22.2-38.5 43.9-77.2 67-115.2 14.6-23.9 32.1-46 53.5-64.3 22.1-18.8 47.5-30.8 77.4-29.6 15.4 0.6 29.7 5.5 43.5 12.6 20.6 10.6 37.4 25.9 54.6 40.7 19.4 16.7 38.4 34.1 58.8 49.5 19.3 14.6 40.3 26.3 65.9 27.6 16.6 0.8 32.9 5 46 16.7 7.1 6.3 10 15.8 6.4 24 -3.7 8.4-12.4 8.7-19.8 10.5 -6.4 1.5-13 2.1-19.6 3.1 -15.2 2.5-26.3 11.5-35.1 23.3 -11.5 15.6-19.5 33.2-24 51.9 -4.5 18.9-3.1 38.2 2.6 56.7 5.2 16.7 11.9 32.9 17 49.7 5.9 19.1 11.6 38.4 15.7 57.9 4.9 23 7.6 46.4 5.6 70.1 -2 23.3-7.6 45-23.4 62.8 -8 9-17.8 15.7-29.1 21 -30.9 14.7-63.5 13.4-96.2 12.5 -31.1-0.9-62.2-3.4-93.2 1.3 -21.8 3.4-43.7 6.3-65.3 10.6 -39.8 7.9-79.8 12.4-120.3 9.2 -12.3-1-24.5-4.3-36.3-8.1 -19.4-6.2-31.2-21.1-40.4-38.5"/><path class="st0" d="M74.9 584.5c-1.5-4.3-3.6-8.4-4.5-12.9 -2.2-10.6-4.5-21.2-5.6-32 -2.5-25.3-5.2-50.7-6.2-76.1 -0.8-21.1-1.7-42.3 3.3-63.5 4.9-20.7 15.2-38.1 27.7-54.6 21.2-27.9 44-54.7 61.2-85.5 11.9-21.3 23.7-42.7 35.7-64 9.6-16.8 19.3-33.6 29.4-50.2 13.3-21.7 27-43 44.1-62.1 13.8-15.5 28.8-29.3 47.3-38.5C336.3 30.8 365.6 30.4 395 45.4c24 12.2 43.2 30.2 62.5 48.3 18.1 16.9 35.8 34.1 53.7 51.1 13 12.3 25.9 24.6 34.3 40.8 3.5 6.9 4.2 14 2 20.9 -5.6 17.3-11.8 34.3-17.7 51.5 -7.2 21.2-14.6 42.5-10.7 65.3 2.2 12.6 5.9 25.2 10.5 37.2 11.2 29.5 23.5 58.5 30.1 89.5 6.5 30.5 10.2 61.1 2 91.9 -4.2 15.7-11.3 30.1-23.6 40.7 -12.7 11-27.8 17.9-44.3 21.8 -25.6 6-51.6 4.5-77.6 4 -22.5-0.4-45.1-1.6-67.4 0.6 -25.2 2.5-50.3 7.8-75.2 12.9 -35.5 7.3-71 13.2-107.5 11.6 -18.1-0.8-36-3-52.8-9.8 -12-4.8-22.2-12.7-29-24.1 -2.9-4.8-5.9-9.6-8.8-14.4"/><path class="st0" d="M333.5 189.7c0.5-2.8 0.3-5.9 1.6-8.2 1.9-3.3 4.8-6.7 9.4-5.9 3.8 0.7 8.8 0.5 9.8 5.4 1 4.6-0.5 8.8-5.1 11.6 -6.9 4.2-10.9 3.8-15.4-2.2"/><path class="st2" d="M290 218.1c-3.1-25.7 6.2-47.2 23.4-65.3 17.5-18.4 38.2-24.8 60-8.9 21 15.2 31.2 43.6 14.8 66.5 -6.7 9.4-16.2 14.9-26.9 19.4 -13.7 5.7-27.6 8.9-42.3 7.4 -6.5-0.7-13.4-2.4-18.9-5.7 -4.3-2.6-6.6-8.3-9.9-12.7"/><path class="st2" d="M85.5 582.9c-2.3-5.5-5.1-10.8-6.7-16.5 -2.2-7.9-4-16-5-24.1 -2.4-20.7-4.7-41.4-6-62.2 -1-15.6-0.5-31.3-0.2-47 0.6-30.9 11.5-57.8 29.6-82.9 19.5-27 40.8-52.8 56.7-82.3 10.4-19.2 21.2-38.1 31.5-57.4 17.3-32.6 35.3-64.8 56.2-95.3 11.1-16.1 23.1-31.8 38.9-43.9 7.6-5.9 14.8-12.7 23.2-17.3 23.3-12.6 47.6-17.3 74-8.8 24.3 7.8 43.4 22.9 61.4 40 14.5 13.8 28.7 27.9 42.5 42.3 7.5 7.8 14 16.6 20.6 25.3 5 6.5 9.5 13.4 14.1 20.2 10.7 15.9 13 33.4 8.5 51.5 -5.7 22.5-13.1 44.5-18.7 67 -4.9 19.8-4.3 39.6 5.2 58.5 6 11.8 11.6 23.7 17 35.7 12 26.6 21.7 53.9 26.2 82.8 3.7 23.8 3.7 47.4-3.6 70.6 -5 16-14.5 28.6-28.4 38.3 -21.5 15-45.9 18.2-71 18.6 -23.6 0.4-47.1-0.8-70.7-0.8 -23.6-0.1-46.9 3.6-69.9 8.4 -25.4 5.3-50.5 12.5-76.1 16.7 -33 5.4-66.2 8-99.4-0.4 -21.6-5.4-38.3-17-49.5-36.4"/><path class="st2" d="M45.5 622.4c-1.7-6.4-3.1-12.8-5.2-19.1 -6.6-19.9-5.8-40.7-7.8-61.1 -2.1-22.1-3.6-44.3-6.3-66.3 -3-24.8-8.4-49.3-10.4-74.1 -2-24.4 7.8-45.1 26.1-61.6 21.4-19.3 43.7-37.7 62-59.9 14.9-18.1 27.9-37.8 40.5-57.6 24.5-38.9 47.7-78.6 72.3-117.4 14.2-22.3 30.1-43.6 51-60.3 10.1-8.1 20.2-16.5 31.5-22.5 23.6-12.5 48.4-18.1 75.6-11.6 25.3 6 46.1 19.4 66.4 34.5 19.2 14.2 37.4 29.9 59.2 40.4 13.9 6.7 28.2 9.2 43.4 8.7 13.2-0.4 26.5-0.2 39.8 0.3 14.4 0.5 27.3 6 39.9 12.5 25.1 13 46.8 30.9 66.3 50.9 12.8 13.1 24 28.2 27.9 47.1 3.1 15.1-5.2 33.5-17.7 42.4 -18.3 13.1-39.2 18-60.7 20.4 -15.7 1.8-31.4 3.7-45.6 10.5 -8.3 4-14.3 11.8-18.9 20.3 -8.2 15.3-8.6 32-5.5 48.1 6.3 33.4 14.5 66.4 21.3 99.7 6.1 29.7 10.8 59.5 9.4 90 -1.1 25.3-5.6 49.7-16.5 72.7 -5.7 12-14.1 21.8-25.6 29.3 -16.8 10.9-35.1 15.8-54.6 18.6 -31.2 4.5-62.2 2.4-93.2-1.4 -38.7-4.8-77.4-6.1-116.1-1 -40.2 5.3-80.2 12.2-120.8 13.9 -19.5 0.8-39 1.2-58.5 1.4 -15.8 0.2-30.3-4.7-43.1-13.9 -8-5.7-14-13.6-18.8-22.2 -2-3.7-4.4-7.2-6.6-10.8"/><path class="st0" d="M301.5 212.7c-7.5-23.1 9.8-54.7 32.5-65.2 12.9-6 27.9-3.7 39 7.3 12 11.8 17.1 26 11.2 42.4 -1.9 5.2-5.2 10.8-9.4 13.9 -17 12.5-35.2 20.9-57.3 14.3 -7-2.1-12.1-5.8-15.5-12"/><path class="st0" d="M279.5 227.8c-4.4-25.8 5-47.8 18.9-68.5 7-10.3 15.2-19.8 26.1-25.8 22-12.1 42.5-8.9 61.7 10.6 9.6 9.7 15.1 21.5 18.5 34.9 3.4 13.6-3 35.7-17.8 46.6 -24.1 17.8-51.2 23.3-80.1 22.5 -12.9-0.4-21.8-7.8-27-19.5"/><path class="st0" d="M431.6 480.6c-0.5-4.9-0.9-9.6 4.9-12.1 6.3-2.7 12.5-1.7 18 1.5 3.5 2.1 2.6 6.3 1.3 9.8 -1.6 4.5-5.8 6-9.5 5.6 -4.8-0.4-9.5-2.7-14.3-4.2"/><path class="st0" d="M270.9 238.1c-6-26.5 4-49.3 16.1-71.7 6.5-12 15.2-22.4 25-31.8 20.1-19.1 51-19.4 72.7-1.1 15.2 12.8 25 29.2 28 48.6 2.7 17.6-2.4 33.3-16.2 45.6 -19.4 17.3-43.5 22.9-67.9 27.7 -9.9 2-19.8 1.9-29.9 1.2 -12.9-0.8-21.9-6.4-27.4-18"/><path class="st0" d="M313.2 202.2c-3.3-17.6 4.1-31.2 17.7-41 13.4-9.7 25.3-7.6 36.3 3 9.6 9.2 10.4 26.2 2 36.6 -10.6 13.3-31.1 18.6-45.7 12.3 -4-1.7-6.6-6.7-9.9-10.2"/><path class="st0" d="M253 257.3c-5.5-23.1 1.6-44.8 9.4-65.6 8.5-22.8 20.9-44 38.8-61.2 14.4-13.8 30.5-24.5 51.8-22.9 17.3 1.3 31.3 9.6 43.4 21.2 14.5 13.9 25 30.8 29.2 50.4 4.6 21.7 0.7 42.3-18.7 58.9 -16.1 13.8-35.3 20.4-55 25.9 -17.8 5-35.9 9-54.1 12.6 -6.9 1.4-14.3 0.6-21.4 0.1 -11.9-0.8-18.3-8.9-23.1-18.7"/><path class="st2" d="M242.6 275.2c-5.5-23.3 0.3-45.2 7.2-67.2 6.6-21 16.5-40.3 28.5-58.5 8.1-12.3 17.9-23 29.4-32.5 9-7.5 18.8-11.9 29.8-14.7 13.7-3.4 26.8-1.4 39.2 4.8 15.2 7.5 26.5 19.3 36.8 32.6 11.3 14.4 18.3 30.4 20.9 48.1 2.9 19.7-4.4 42.6-21.8 56.7 -19 15.5-41.7 21.7-63.9 28.7 -22.4 7.1-45.5 12-68.4 17.6 -5 1.2-10.4 1.5-15.6 1.4 -10.9-0.2-17.2-7.1-21.6-16.3"/><path class="st0" d="M233.3 305.7c-7.4-29.7-2-58.2 6.7-86.8 8.3-27 21.1-51.6 36.5-75 12.2-18.4 27.6-33.6 47.6-43.2 17.6-8.4 35.9-7.3 53.3 1 19.6 9.4 34 24.5 45.6 42.8 9.6 15.1 17.5 30.7 18.4 48.9 1.2 23.2-6.3 42.1-25.1 57 -14.2 11.3-30.5 17.1-47.1 22.7 -25.5 8.7-51.4 16.5-76.9 25.3 -13 4.5-25.6 10.3-38.4 15.2 -9.8 3.7-14.6 1.8-20.2-7.3"/><path class="st0" d="M188.8 466.6c-2.4-8-1.4-15.9 1-23.7 3.3-10.7 12-15.1 21.7-9.9 3.1 1.7 6.2 6.1 6.7 9.6 1.2 8.4 1.5 16.9-4.4 24.4 -7.6 9.7-17.7 9.5-24.7 0.2"/><path class="st0" d="M165.7 490.8c-1.6-5.3-4.3-10.6-4.7-16 -2-30.3 5.4-57.7 27.6-79.6 10.6-10.4 24.6-12.8 34.7-6.5 2.7 1.7 5.4 3.8 7.1 6.3 12.3 18.4 23.2 37.4 21.8 60.8 -1 17-7.8 30.9-21.1 42.1 -8.7 7.4-17.9 13.1-29.2 14.2 -16.7 1.8-28.4-6-35.9-20.7"/><path class="st2" d="M152.5 498.8c-4.7-15.3-6.4-31-4.1-46.9 3.4-23.5 10.8-45.4 25.6-64.4 10.8-13.9 23.3-26.1 38.5-35.3 9.4-5.7 21.1-1.6 25.1 8.5 2.8 7 6 13.9 9.4 20.6 9.4 19.2 19.6 38.3 24.4 59.1 5.2 22.4-0.1 43.2-16.2 60.3 -13.8 14.7-30.5 25.6-50.4 29 -14 2.4-28.3-0.4-38.9-11.2 -5.3-5.4-8.7-12.7-12.9-19.2"/></svg>