<?xml version="1.0" encoding="UTF-8" standalone="no"?>
<!DOCTYPE svg PUBLIC "-//W3C//DTD SVG 1.1//EN" "http://www.w3.org/Graphics/SVG/1.1/DTD/svg11.dtd">
<svg width="780" height="440" viewBox="200 220 10 360" version="1.1" xmlns="http://www.w3.org/2000/svg" xmlns:xlink="http://www.w3.org/1999/xlink" xml:space="preserve" xmlns:serif="http://www.serif.com/">
    <g id="Layer-1" serif:id="Layer 1">
        <g opacity="0.18">
            <g transform="matrix(1,0,0,1,245.534,540.788)">
                <path d="M0,-421.735C-10.977,-403.596 -22.384,-385.693 -32.509,-367.062C-47.938,-338.678 -62.269,-309.672 -77.416,-281.122C-92.927,-251.89 -111.784,-224.915 -131.219,-198.255C-146.243,-177.649 -157.9,-155.011 -162.235,-129.129C-165.148,-111.735 -165.265,-94.139 -164.496,-76.55C-163.784,-60.213 -162.924,-43.823 -160.905,-27.589C-159.083,-12.962 -157.532,2.19 -152.426,15.862C-143.719,39.179 -129.759,58.336 -103.762,66.005C-76.352,74.09 -48.942,75.375 -21.328,71.043C0.212,67.663 21.85,64.152 42.867,58.607C70.96,51.192 99.034,44.012 128.232,42.92C147.944,42.183 167.754,42.944 187.519,43.448C207.976,43.97 228.322,44.445 248.139,38.339C273.748,30.45 291.669,14.931 298.791,-11.843C306.318,-40.136 302.172,-67.928 294.872,-95.958C286.432,-128.369 269.116,-156.16 251.849,-184.19C242.524,-199.324 238.157,-215.634 243.242,-233.353C250.29,-257.913 257.635,-282.402 263.903,-307.185C269.605,-329.722 265.297,-351.108 252.97,-371.246C239.159,-393.813 222.234,-413.673 204.046,-432.763C191.038,-446.417 177.703,-459.443 162.677,-470.778C139.707,-488.107 114.671,-497.11 86.249,-491.251C68.854,-487.662 54.116,-478.665 40.365,-467.49C25.46,-455.38 13.36,-440.98 2.685,-425.15L0,-421.735Z" style="fill:none;fill-rule:nonzero;stroke:rgb(212,212,212);stroke-width:1px;"/>
            </g>
            <g transform="matrix(1,0,0,1,257.08,545.294)">
                <path d="M0,-434.927C1.534,-437.245 5.927,-442.628 7.699,-444.739C18.447,-457.531 30.287,-469.336 44.537,-477.967C71.947,-494.572 100.722,-497.522 130.564,-482.41C148.466,-473.347 163.5,-460.516 177.182,-445.923C186.817,-435.647 197.127,-425.887 205.743,-414.802C217.82,-399.265 228.59,-382.785 236.966,-364.746C247.525,-342.006 245.42,-319.754 239.273,-296.718C232.786,-272.403 221.362,-250.436 211.402,-227.716C203.347,-209.345 206.64,-201.989 219.575,-188.36C229.085,-178.342 238.5,-168.447 246.854,-157.292C266.335,-131.28 276.639,-102.077 281.437,-70.483C285.161,-45.963 282.983,-22.527 269.619,-1.573C262.53,9.54 251.392,16.482 239.355,21.198C215.893,30.392 191.113,28.585 166.489,27.38C146.208,26.386 126.001,25.948 105.786,28.289C86.509,30.521 67.836,35.04 49.252,40.125C16.856,48.99 -15.236,59.037 -49.204,61.138C-72.771,62.595 -95.819,60.362 -118.032,51.394C-129.661,46.699 -138.797,38.598 -146.048,28.262C-157.54,11.884 -162.147,-6.868 -164.854,-26.106C-168.636,-52.989 -169.894,-79.967 -168.816,-107.057C-167.446,-141.527 -155.516,-171.475 -135.953,-199.218C-110.788,-234.904 -87.947,-272.101 -69.539,-312.097C-58.408,-336.283 -45.21,-359.488 -32.477,-382.867C-24.793,-396.97 -16.257,-410.589 -7.978,-424.346L0,-434.927Z" style="fill:none;fill-rule:nonzero;stroke:rgb(212,212,212);stroke-width:1px;"/>
            </g>
            <g transform="matrix(1,0,0,1,266.293,546.43)">
                <path d="M0,-440.079C9.213,-449.593 15.193,-456.997 24.779,-466.11C48.88,-489.021 87.473,-494.129 119.303,-478.973C137.265,-470.422 151.824,-457.227 165.514,-443.058C178.001,-430.134 188.937,-415.945 199.7,-401.47C212.266,-384.572 221.18,-366.553 225.002,-346.146C226.467,-338.312 227.177,-329.915 226.04,-322.144C221.742,-292.741 211.435,-266.024 191.475,-243.623C181.212,-232.101 169.354,-223.936 154.649,-219.395C145.295,-216.505 136.008,-213.143 127.163,-208.999C119.845,-205.569 113.173,-200.691 111.09,-191.894C109.286,-184.277 110.83,-180.469 117.574,-176.113C128.356,-169.151 140.063,-169.732 151.798,-171.623C167.871,-174.217 183.771,-176.448 200.005,-170.826C211.937,-166.693 221.621,-159.571 229.411,-150.012C235.752,-142.235 241.26,-133.683 246.458,-125.066C255.424,-110.205 260,-93.666 263.188,-76.851C265.734,-63.41 265.631,-49.698 263.02,-36.426C259.253,-17.28 249.181,-2.057 231.636,6.766C217.074,14.088 201.061,16.201 184.811,15.855C161.476,15.356 138.079,13.198 114.828,14.016C98.33,14.597 81.734,17.798 65.714,21.835C39.924,28.338 14.502,36.27 -10.944,44.015C-34.553,51.203 -58.601,54.05 -83.362,52.232C-100.076,51.002 -116.033,47.45 -130.611,38.375C-143.138,30.574 -151.247,19.646 -157.212,6.019C-167.78,-18.128 -169.399,-43.359 -170.906,-68.905C-171.867,-85.158 -171.734,-101.213 -169.876,-117.307C-167.35,-139.188 -161.709,-160.052 -150.235,-178.699C-136.913,-200.348 -121.827,-220.921 -109.345,-243.043C-94.844,-268.744 -81.825,-295.361 -69.1,-322.051C-54.541,-352.591 -38.816,-382.435 -21.373,-411.325C-16.907,-418.725 -11.131,-425.291 -6.209,-432.42L0,-440.079Z" style="fill:none;fill-rule:nonzero;stroke:rgb(139,139,139);stroke-width:1px;"/>
            </g>
            <g transform="matrix(1,0,0,1,283.076,545.179)">
                <path d="M0,-437.113C7.057,-443.084 13.144,-450.182 20.613,-455.666C26.141,-459.725 32.463,-462.916 38.847,-465.402C50.213,-469.825 62.554,-471.594 74.766,-469.911C87.964,-468.094 100.39,-462.413 111.326,-454.707C126.065,-444.325 138.639,-431.742 149.556,-417.373C155.359,-409.735 161.589,-402.384 166.621,-394.191C170.684,-387.574 174.182,-380.506 177.17,-373.351C182.837,-359.788 186.257,-345.233 185.451,-330.568C184.611,-315.341 179.417,-300.198 170.925,-287.745C161.727,-274.263 148.549,-264.586 134.025,-257.572C117.704,-249.686 100.092,-244.624 83.059,-238.498C67.412,-232.87 52.836,-225.794 41.269,-213.569C34.389,-206.301 29.186,-197.406 28.644,-187.087C27.988,-174.603 33.48,-162.274 39.734,-151.695C47.964,-137.775 59.354,-125.988 73.034,-117.483C86.667,-109.006 100.994,-104.531 116.906,-105.43C132.712,-106.323 147.902,-111.483 163.792,-111.653C170.908,-111.729 178.285,-111.097 184.736,-107.685C190.294,-104.743 195.001,-100.278 198.759,-95.233C206.411,-84.962 210.318,-72.402 208.539,-59.757C206.533,-45.495 197.698,-34.66 184.106,-30.243C167.884,-24.967 149.779,-29.241 133.212,-31.239C115.798,-33.339 98.632,-35.561 81.511,-31.115C73.04,-28.916 65.146,-25.301 57.227,-21.677C48.651,-17.75 40.133,-13.696 31.615,-9.646C15.264,-1.869 -0.966,6.27 -17.661,13.302C-46.19,25.315 -79.564,34.481 -110.637,25.539C-125.948,21.133 -139.516,12.569 -148.224,-1.214C-156.626,-14.514 -161.095,-30.897 -163.88,-46.203C-169.37,-76.39 -166.218,-107.181 -158.621,-136.441C-150.012,-169.601 -127.346,-196.437 -110.258,-225.233C-101.172,-240.539 -93.324,-256.372 -86.744,-272.967C-79.738,-290.635 -72.749,-308.311 -65.42,-325.841C-58.28,-342.915 -50.589,-359.426 -41.608,-375.567C-37.631,-382.712 -30.593,-395.838 -25.872,-402.448C-16.492,-415.583 -11.714,-423.387 -1.058,-435.632C-0.66,-436.089 -0.354,-436.62 0,-437.113Z" style="fill:none;fill-rule:nonzero;stroke:rgb(212,212,212);stroke-width:1px;"/>
            </g>
            <g transform="matrix(1,0,0,1,256.027,515.973)">
                <path d="M0,-381.141C-4.49,-373.876 -8.834,-366.517 -13.119,-359.122C-28.571,-332.469 -41.333,-304.47 -53.267,-276.009C-61.505,-256.36 -69.912,-236.704 -79.717,-217.854C-88.494,-200.978 -99.323,-185.227 -109.18,-168.937C-119.892,-151.235 -130.995,-133.868 -137.542,-113.766C-144.718,-91.731 -146.805,-69.095 -146.466,-46.137C-146.184,-27.006 -144.32,-7.934 -138.418,10.64C-127.978,43.493 -106.729,62.54 -72.26,65.673C-47.051,67.967 -22.805,64.326 0.549,55.42C20.973,47.63 41.123,39.141 61.512,31.259C82.395,23.191 103.438,14.945 126.253,14.713C142.957,14.542 159.724,16.393 176.461,17.436C189.849,18.273 203.009,18.73 216.315,15.453C235.325,10.771 248.593,-5.403 250.545,-23.841C251.801,-35.699 250.824,-46.756 247.133,-58.16C236.025,-92.475 211.774,-107.148 177.097,-101.036C161.298,-98.25 145.457,-95.369 129.032,-97.596C113.087,-99.757 100.273,-107.528 88.943,-118.449C80.717,-126.375 75.163,-135.63 72.525,-147.196C69.356,-161.091 74.028,-171.692 82.57,-181.228C95.711,-195.9 114.125,-200.949 131.747,-207.534C146.536,-213.062 161.614,-218.266 175.493,-225.62C193.368,-235.093 205.442,-250.44 213.046,-269.646C220.316,-288.013 221.51,-306.723 216.937,-325.841C214.576,-335.723 209.949,-344.935 205.785,-354.308C200.879,-365.347 193.646,-374.579 186.727,-383.857C169.199,-407.35 149.293,-428.825 121.612,-440.206C102.47,-448.076 83.12,-449.108 63.607,-440.397C47.918,-433.396 34.825,-423.569 23.782,-410.652L0,-381.141Z" style="fill:none;fill-rule:nonzero;stroke:rgb(184,184,184);stroke-width:1px;stroke-linecap:butt;stroke-linejoin:miter;stroke-dasharray:6,9,6,9,6,9;"/>
            </g>
            <g transform="matrix(1,0,0,1,272.388,545.812)">
                <path d="M0,-439.361C12.049,-454.695 27.207,-466.493 44.528,-474.538C69.68,-486.22 94.97,-483.25 119.091,-468.776C137.577,-457.683 153.047,-443.082 166.303,-426.071C175.122,-414.755 184.838,-403.9 192.016,-391.595C203.396,-372.092 212.02,-351.497 210.712,-327.931C209.088,-298.736 197.918,-274.086 176.975,-255.102C167.179,-246.221 154.178,-240.535 141.927,-234.909C129.223,-229.077 115.81,-224.644 102.439,-220.412C93.737,-217.656 87.762,-211.888 81.462,-205.85C69.687,-194.562 70.067,-172.688 85.658,-159.579C98.776,-148.549 113.491,-143.291 130.224,-145.042C142.925,-146.372 155.476,-149.241 168.202,-149.975C188.894,-151.164 207.504,-146.651 221.922,-128.81C239.194,-107.436 247.093,-83.481 246.631,-56.601C246.352,-40.396 242.432,-25.368 229.979,-14.225C219.878,-5.188 207.801,-0.474 194.297,1.263C173.534,3.939 152.836,0.883 132.134,-0.257C102.334,-1.9 74.161,4.088 46.261,13.614C18.796,22.989 -7.965,34.455 -36.682,40.313C-63.759,45.836 -90.566,46.859 -117.239,37.645C-127.798,33.996 -136.69,27.504 -144.291,18.92C-159.678,1.544 -163.774,-19.729 -166.789,-41.481C-170.034,-64.878 -170.876,-88.232 -168.077,-111.674C-165.178,-135.929 -158.465,-158.828 -145.922,-179.529C-134.189,-198.892 -121.143,-217.43 -109.485,-236.837C-94.321,-262.082 -82.833,-289.256 -71.049,-316.286C-56.731,-349.125 -40.075,-380.758 -21.4,-411.247L0,-439.361Z" style="fill:none;fill-rule:nonzero;stroke:rgb(212,212,212);stroke-width:1px;"/>
            </g>
            <g transform="matrix(1,0,0,1,274.213,522.262)">
                <path d="M0,-397.119C5.783,-403.692 10.839,-410.887 17.325,-416.806C23.259,-422.222 29.558,-427.274 36.408,-431.481C50.154,-439.925 65.869,-444.124 82.13,-442.181C114.23,-438.348 139.995,-412.688 158.619,-387.618C175.8,-364.493 189.752,-335.921 186.819,-306.571C185.446,-292.806 180.465,-278.701 172.351,-267.622C161.827,-253.256 145.158,-244.386 129.11,-237.636C97.78,-224.46 61.627,-219.369 36.886,-194.25C29.847,-187.107 24.564,-178.492 23.399,-168.252C21.791,-154.124 26.789,-139.099 33.084,-126.555C41.662,-109.467 54.835,-95.887 66.236,-80.771C71.896,-73.265 77.67,-65.65 82.745,-57.729C86.194,-52.348 86.377,-45.816 83.689,-40.186C80.292,-33.073 73.063,-28.269 67.098,-23.531C59.721,-17.672 52.07,-12.169 44.246,-6.929C28.671,3.509 12.445,12.98 -3.878,22.193C-31.58,37.827 -63.719,47.005 -95.805,40.083C-111.169,36.769 -123.603,28.78 -132.477,15.5C-142.063,1.152 -145.932,-15.577 -148.189,-32.379C-151.896,-59.977 -149.768,-88.061 -141.02,-114.28C-136.566,-127.625 -130.509,-140.368 -123.221,-152.323C-113.902,-167.608 -103.239,-181.984 -94.232,-197.485C-75.732,-229.326 -65.261,-264.853 -52.168,-299.199C-42.833,-323.686 -32.591,-347.744 -18.182,-369.572C-12.121,-378.753 -7.121,-387.948 0,-397.119Z" style="fill:none;fill-rule:nonzero;stroke:rgb(212,212,212);stroke-width:1px;"/>
            </g>
            <g transform="matrix(1,0,0,1,267.947,486.466)">
                <path d="M0,-337.515C-8.435,-321.444 -17.306,-305.561 -24.535,-288.866C-31.193,-273.492 -36.434,-257.484 -40.294,-241.119C-44.065,-225.127 -45.542,-208.718 -49.046,-192.685C-52.436,-177.184 -58.073,-162.528 -67.374,-149.743C-72.94,-142.092 -78.476,-134.416 -84.122,-126.826C-89.604,-119.458 -95.584,-112.417 -100.845,-104.89C-110.218,-91.479 -116.389,-75.696 -120.629,-59.847C-124.797,-44.278 -126.143,-27.963 -124.7,-11.796C-123.233,4.643 -119.567,21.71 -109.252,35.113C-91.093,58.709 -59.238,58.314 -34.335,48.279C-18.909,42.068 -4.701,31.421 7.174,19.856C18.392,8.929 27.014,-5.136 28.412,-21.211C29.739,-36.472 24.222,-50.785 18.204,-64.608C10.918,-81.345 2.717,-97.841 -1.797,-115.589C-5.067,-128.448 -6.072,-141.841 0.869,-153.479C8.363,-166.044 21.996,-174.724 34.646,-181.193C51.106,-189.61 68.955,-194.658 86.479,-200.373C95.377,-203.273 104.229,-206.315 113.017,-209.524C121.453,-212.605 130.015,-215.6 138.019,-219.693C152.994,-227.353 165.792,-239.015 173,-254.512C179.187,-267.808 180.146,-282.744 177.557,-297.234C174.372,-315.085 166.345,-331.632 155.772,-346.313C145.917,-359.997 134.542,-372.932 120.459,-382.292C107.69,-390.775 92.916,-396.224 77.637,-395.619C60.97,-394.957 45.133,-387.486 32.874,-376.497C25.74,-370.1 18.681,-364.246 12.698,-356.774C8.067,-350.995 3.699,-344.1 0,-337.515Z" style="fill:none;fill-rule:nonzero;stroke:rgb(212,212,212);stroke-width:1px;"/>
            </g>
            <g transform="matrix(1,0,0,1,265.893,498.371)">
                <path d="M0,-355.072C8.411,-370.202 21.329,-381.943 33.717,-393.654C43.587,-402.983 56.204,-409.072 69.61,-411.307C82.929,-413.531 96.876,-411.987 109.546,-406.901C124.47,-400.91 136.534,-389.772 147.308,-377.961C170.053,-353.025 189.8,-321.891 187.636,-286.885C186.82,-273.679 182.145,-261.164 174.264,-250.734C164.219,-237.435 150.203,-228.418 135.048,-221.982C126.871,-218.511 118.447,-215.656 110.095,-212.632C101.416,-209.487 92.858,-206.019 84.22,-202.763C66.737,-196.176 48.881,-191.046 34.338,-178.823C23.757,-169.931 15.668,-158.883 14.455,-144.56C13.14,-129.031 19.646,-113.719 25.896,-99.763C29.786,-91.082 34.038,-82.576 38.364,-74.099C42.573,-65.847 47.161,-57.604 50.624,-49.008C55.712,-36.377 54.605,-22.825 48.124,-11.165C39.449,4.448 25.264,14.619 11.128,24.694C3.562,30.085 -3.883,35.658 -12.187,39.887C-18.822,43.264 -25.611,46.366 -32.63,48.878C-59.377,58.459 -94.664,58.139 -113.883,32.976C-123.322,20.619 -128.092,4.324 -130.404,-10.801C-132.746,-26.121 -132.222,-41.676 -130.171,-56.912C-128.005,-72.987 -123.946,-88.328 -117.121,-102.963C-110.355,-117.466 -101.615,-130.892 -92.411,-143.886C-82.897,-157.314 -73.777,-171.033 -66.566,-185.916C-59.086,-201.355 -55.014,-217.605 -50.572,-234.154C-44.583,-256.463 -37.82,-278.625 -28.465,-299.697C-20.063,-318.621 -10.027,-337.004 0,-355.072Z" style="fill:none;fill-rule:nonzero;stroke:rgb(139,139,139);stroke-width:1px;"/>
            </g>
            <g transform="matrix(1,0,0,1,264.084,126.733)">
                <path d="M0,120.987C-6.759,93.188 3.102,69.1 14.551,45.087C22.226,28.988 31.94,14.212 45.598,3.491C71.415,-16.774 93.546,-19.457 122.777,3.53C140.187,17.218 150.84,36.406 154.478,57.979C157.641,76.723 152.228,93.671 137.346,106.803C122.874,119.571 105.57,125.741 87.476,130.737C68.266,136.039 49.04,140.444 28.694,138.942C16.038,138.006 6.175,133.561 0.368,121.585" style="fill:none;fill-rule:nonzero;stroke:rgb(212,212,212);stroke-width:1px;"/>
            </g>
            <g transform="matrix(1,0,0,1,48.3789,47.4574)">
                <path d="M0,586.892C-2.731,578.949 -5.891,571.121 -8.11,563.044C-13.275,544.226 -14.533,524.912 -15.285,505.588C-16.85,465.292 -20.954,425.237 -31.743,386.147C-35.979,370.796 -39.726,355.553 -40.581,339.743C-41.673,319.61 -34.699,302.726 -19.647,289.859C-7.898,279.814 4.588,270.649 16.54,260.836C37.169,243.9 56.486,225.465 71.314,203.088C91.309,172.912 110.402,142.11 129.51,111.335C140.31,93.942 149.81,75.696 160.889,58.501C174.946,36.684 190.7,16.061 208.943,-2.376C214.742,-8.236 222.112,-12.477 228.375,-17.911C235.436,-24.038 243.466,-28.242 251.771,-32.404C273.648,-43.37 296.392,-48.021 320.869,-43.346C347.655,-38.23 369.624,-23.208 391.349,-7.549C409.148,5.283 426.245,19.131 446.731,27.853C458.963,33.06 471.251,34.844 484.066,34.377C495.802,33.952 507.51,32.707 519.247,32.687C538.812,32.652 556.636,39.545 573.273,49.693C594.6,62.698 614.327,77.903 633.263,94.344C652.341,110.911 669.583,128.886 681.034,151.605C690.876,171.132 688.063,193.296 671.466,207.926C654.249,223.102 633.646,230.025 611.58,233.909C599.687,236.004 587.884,238.918 575.885,240.027C540.476,243.292 528.505,269.785 529.585,296.533C530.344,315.348 534.303,333.487 538.084,351.711C546.35,391.538 556.312,431.039 558.736,471.823C560.021,493.431 559.807,514.724 556.291,536.06C553.488,553.074 549.491,569.537 542.949,585.412C533.9,607.371 516.911,617.96 494.333,621.955C454.452,629.01 414.599,627.081 374.532,621.412C350.055,617.949 325.467,614.933 300.854,613.226C277.209,611.586 253.671,613.611 230.258,617.428C212.02,620.403 193.473,621.688 175.043,623.542C142.077,626.856 109.12,630.256 76.113,633.183C56.589,634.913 38.26,630.915 22.828,617.368C13.309,609.01 6.712,598.316 0.368,587.49" style="fill:none;fill-rule:nonzero;stroke:rgb(212,212,212);stroke-width:1px;"/>
            </g>
            <g transform="matrix(1,0,0,1,62.9658,62.3527)">
                <path d="M0,543.234C-2.34,535.052 -5.648,526.993 -6.834,518.667C-9.895,497.183 -12.085,475.588 -14.492,454.024C-16.738,433.915 -18.683,413.778 -20.996,393.675C-23.893,368.531 -29.357,343.573 -23.174,318.172C-19.158,301.678 -10.523,288.194 0.744,276.672C24.24,252.639 47.822,228.624 66.858,200.811C81.528,179.377 94.074,156.434 107.451,134.092C123.262,107.689 139.055,81.272 154.661,54.74C167.24,33.354 182.362,13.88 199.477,-3.762C210.337,-14.959 222.781,-24.866 236.89,-31.997C270.934,-49.207 304.994,-48.982 339.146,-29.839C360.023,-18.135 377.987,-2.468 396.516,12.452C414.036,26.56 431.574,40.574 452.763,48.779C465.714,53.794 479.177,55.513 492.72,54.598C533.102,51.869 565.602,69.79 594.515,96.121C603.094,103.935 610.351,113.784 616.373,123.805C624.95,138.071 628.556,153.675 618.373,168.606C611.676,178.419 601.445,184.103 590.126,186.748C578.112,189.551 565.815,191.465 553.52,192.815C541.079,194.179 528.574,195.925 517.574,201.443C505.812,207.343 498.537,218.331 493.612,230.644C486.04,249.58 487.569,269.134 492.191,288.459C500.407,322.806 509.795,356.89 517.999,391.24C524.798,419.706 528.05,448.726 525.892,477.767C524.445,497.225 519.926,516.438 510.276,533.507C505.235,542.432 498.269,550.011 489.85,556.462C470.243,571.479 447.693,576.446 423.688,579.001C396.819,581.858 370.184,579.266 343.474,576.892C318.08,574.636 292.629,573.398 267.336,575.364C246.097,577.011 225.069,580.83 203.931,583.566C178.625,586.842 153.404,590.351 127.74,591.176C107.409,591.831 87.139,592.441 66.901,590.188C49.536,588.257 32.442,583.636 19.652,570.643C12.033,562.902 6.719,552.847 0.369,543.834" style="fill:none;fill-rule:nonzero;stroke:rgb(212,212,212);stroke-width:1px;"/>
            </g>
            <g transform="matrix(1,0,0,1,69.3906,74.7049)">
                <path d="M0,520.335C-2.514,511.435 -5.839,502.659 -7.36,493.609C-9.918,478.383 -11.643,463.005 -13.156,447.647C-15.722,421.602 -17.631,395.502 -20.236,369.46C-22.053,351.314 -23.78,333.113 -20.266,315.241C-17.001,298.638 -9.333,283.935 1.632,271.077C17.129,252.905 32.866,234.917 47.729,216.217C63.36,196.55 77.366,175.707 89.015,153.218C96.542,138.685 105.36,124.849 113.625,110.719C125.946,89.656 138.121,68.503 150.672,47.584C164.501,24.53 180.739,3.125 200.056,-15.267C210.174,-24.901 221.473,-33.84 235.118,-39.538C245.511,-43.878 255.765,-47.664 266.847,-49.498C285.152,-52.531 302.316,-48.874 319.503,-41.594C343.16,-31.574 361.838,-14.69 381.28,1.357C397.58,14.811 413.725,28.541 430.793,40.929C450.792,55.444 473.477,61.825 498.083,61.626C525.199,61.406 549.296,70.752 569.869,89.12C580.246,98.385 588.172,109.468 593.047,122.687C596.175,131.163 591.881,144.194 586.154,149.518C575.503,159.413 562.297,160.733 549.121,162.876C537.622,164.747 525.927,165.842 514.659,168.606C498.107,172.664 488.045,184.77 480.36,199.356C465.919,226.758 469.268,255.133 477.429,283.674C484.022,306.738 491.212,329.638 497.965,352.657C505.241,377.459 509.727,402.76 511.464,428.448C513.16,453.554 510.535,477.997 500.576,501.166C493.059,518.651 480.867,531.823 464.326,540.638C449.9,548.325 434.083,552.421 417.917,554.286C388.894,557.635 359.754,554.69 330.636,552.96C304.9,551.431 279.187,550.608 253.59,554.754C224.522,559.464 195.344,563.635 166.115,567.337C133.446,571.471 100.562,572.866 67.636,568.53C48.34,565.987 29.728,560.52 16.209,544.955C9.98,537.783 5.591,528.991 0.368,520.933" style="fill:none;fill-rule:nonzero;stroke:rgb(212,212,212);stroke-width:1px;"/>
            </g>
            <g transform="matrix(1,0,0,1,76.8511,79.8845)">
                <path d="M0,508.919C-2.464,500.536 -5.364,492.25 -7.306,483.758C-12.053,462.98 -13.518,441.842 -14.824,420.673C-15.687,406.641 -17.673,392.66 -18.735,378.632C-20.258,358.537 -21.943,338.409 -18.72,318.394C-14.754,293.773 -2.055,273.913 13.636,255.57C40.093,224.648 63.958,191.806 84.088,156.231C105.599,118.213 126.585,79.869 148.954,42.385C163.068,18.735 180.108,-3.071 201.041,-21.021C222.611,-39.515 247.461,-51.193 276.918,-49.671C292.093,-48.887 306.173,-43.894 319.841,-36.689C340.175,-25.968 356.857,-10.613 373.98,4.333C393.244,21.144 412.091,38.555 432.311,54.107C451.46,68.84 472.198,80.6 497.411,82.141C513.741,83.138 529.847,87.381 542.859,99.228C549.863,105.602 552.886,115.023 549.406,123.159C545.833,131.515 537.271,131.705 529.994,133.408C523.706,134.878 517.167,135.325 510.753,136.309C495.802,138.608 484.962,147.482 476.462,159.174C465.274,174.558 457.57,192.013 453.364,210.57C449.126,229.283 450.646,248.48 456.512,266.994C461.79,283.644 468.56,299.841 473.756,316.511C479.701,335.575 485.524,354.763 489.781,374.226C494.795,397.161 497.734,420.396 495.96,444.007C494.226,467.107 488.929,488.689 473.504,506.192C465.679,515.07 456.12,521.573 445.03,526.791C414.712,541.058 382.656,539.479 350.498,538.264C319.87,537.106 289.209,534.252 258.734,538.689C237.318,541.807 215.813,544.545 194.577,548.579C155.506,555.999 116.166,560.112 76.291,556.58C64.218,555.509 52.099,552.068 40.469,548.196C21.325,541.821 9.504,526.905 0.368,509.518" style="fill:none;fill-rule:nonzero;stroke:rgb(139,139,139);stroke-width:1px;"/>
            </g>
            <g transform="matrix(1,0,0,1,82.8398,83.5857)">
                <path d="M0,496.585C-1.55,492.317 -3.606,488.147 -4.548,483.756C-6.816,473.202 -9.22,462.604 -10.386,451.915C-13.132,426.725 -16.023,401.497 -17.262,376.234C-18.293,355.212 -19.368,334.158 -14.626,313.163C-9.982,292.593 -0.034,275.388 12.13,259.104C32.722,231.533 54.911,205.134 71.545,174.686C83.064,153.602 94.428,132.429 106.1,111.434C115.361,94.776 124.724,78.168 134.515,61.833C147.371,40.385 160.715,19.344 177.365,0.497C190.831,-14.743 205.473,-28.361 223.567,-37.301C251.951,-51.327 280.793,-51.401 309.881,-36.268C333.597,-23.931 352.667,-5.789 371.842,12.315C389.777,29.248 407.418,46.505 425.221,63.586C438.1,75.939 450.952,88.251 459.325,104.472C462.872,111.341 463.576,118.423 461.444,125.302C456.143,142.408 450.114,159.27 444.49,176.273C437.56,197.23 430.495,218.387 434.54,241.034C436.788,253.62 440.574,266.144 445.194,278.121C456.519,307.502 468.921,336.476 475.686,367.369C482.342,397.778 486.335,428.203 478.558,458.74C474.604,474.276 467.697,488.502 455.679,498.967C443.291,509.752 428.469,516.496 412.279,520.197C387.101,525.953 361.547,524.206 335.976,523.466C313.845,522.826 291.528,521.434 269.617,523.404C244.796,525.637 220.212,530.661 195.749,535.528C160.876,542.47 125.96,547.986 90.051,546.032C72.201,545.062 54.624,542.662 37.976,535.789C26.086,530.878 16.044,522.985 9.19,511.551C6.3,506.732 3.312,501.972 0.369,497.185" style="fill:none;fill-rule:nonzero;stroke:rgb(212,212,212);stroke-width:1px;"/>
            </g>
            <g transform="matrix(1,0,0,1,333.571,182.329)">
                <path d="M0,7.817C0.458,5.063 0.249,1.915 1.532,-0.353C3.404,-3.669 6.143,-7.02 10.726,-6.127C14.451,-5.398 19.349,-5.535 20.429,-0.679C21.456,3.94 20.055,8.011 15.519,10.749C8.751,14.837 4.851,14.452 0.369,8.417" style="fill:none;fill-rule:nonzero;stroke:rgb(212,212,212);stroke-width:1px;"/>
            </g>
            <g transform="matrix(1,0,0,1,290.982,149.847)">
                <path d="M0,68.138C-3.34,42.576 5.625,21.243 22.406,3.45C39.464,-14.638 59.755,-20.831 81.406,-4.843C102.186,10.5 112.484,38.76 96.656,61.377C90.191,70.617 80.875,76.056 70.407,80.357C56.98,85.876 43.306,88.969 28.872,87.306C22.478,86.57 15.646,84.772 10.208,81.43C5.969,78.825 3.581,73.084 0.368,68.736" style="fill:none;fill-rule:nonzero;stroke:rgb(184,184,184);stroke-width:1px;stroke-linecap:butt;stroke-linejoin:miter;stroke-dasharray:6,9,6,9,6,9;"/>
            </g>
            <g transform="matrix(1,0,0,1,93.2451,84.1605)">
                <path d="M0,494.562C-2.285,489.095 -5.122,483.779 -6.725,478.126C-8.959,470.246 -10.857,462.18 -11.858,454.083C-14.408,433.482 -16.937,412.851 -18.394,392.175C-19.485,376.656 -19.146,361.039 -19.007,345.478C-18.731,314.75 -8.209,288.085 9.363,263.335C28.29,236.675 48.995,211.187 64.411,182.028C74.443,163.058 84.948,144.348 94.833,125.299C111.562,93.059 128.935,61.173 149.221,31.135C159.966,15.223 171.672,-0.215 187.052,-12.145C194.509,-17.93 201.48,-24.667 209.687,-29.106C232.498,-41.443 256.4,-45.833 282.401,-37.143C306.386,-29.126 325.373,-13.951 343.209,3.17C357.606,16.99 371.709,31.15 385.413,45.67C392.836,53.539 399.321,62.343 405.902,70.975C410.873,77.496 415.416,84.353 419.991,91.168C430.652,107.038 433.148,124.53 428.842,142.482C423.491,164.783 416.362,186.619 411.094,208.941C406.451,228.612 407.201,248.282 416.798,267.122C422.782,278.866 428.455,290.781 433.901,302.783C445.944,329.311 455.747,356.582 460.507,385.372C464.42,409.035 464.602,432.535 457.687,455.549C452.911,471.439 443.678,483.788 430.093,493.305C409.089,508.021 385.045,510.923 360.427,511.091C337.233,511.246 314.007,509.886 290.797,509.596C267.559,509.306 244.7,512.696 222.083,517.251C197.094,522.286 172.457,529.205 147.294,533.125C114.898,538.172 82.166,540.395 49.479,531.802C28.203,526.21 11.577,514.518 0.368,495.16" style="fill:none;fill-rule:nonzero;stroke:rgb(184,184,184);stroke-width:1px;stroke-linecap:butt;stroke-linejoin:miter;stroke-dasharray:6,9,6,9,6,9;"/>
            </g>
            <g transform="matrix(1,0,0,1,54.2007,53.923)">
                <path d="M0,563.652C-1.75,557.305 -3.204,550.862 -5.306,544.632C-12.002,524.797 -11.451,504.134 -13.591,483.781C-15.903,461.796 -17.556,439.736 -20.432,417.817C-23.665,393.164 -29.142,368.718 -31.425,344.015C-33.666,319.761 -24.207,299.27 -6.351,283.032C14.484,264.085 36.329,245.994 54.069,224.053C68.512,206.194 81.201,186.734 93.338,167.129C117.119,128.726 139.487,89.413 163.395,51.094C177.146,29.052 192.643,8.048 213.047,-8.4C222.873,-16.321 232.78,-24.567 243.848,-30.419C266.946,-42.636 291.296,-47.919 318.139,-41.252C343.113,-35.052 363.651,-21.489 383.792,-6.352C402.843,7.964 420.871,23.716 442.486,34.395C456.272,41.205 470.326,43.806 485.326,43.494C498.353,43.225 511.421,43.552 524.459,44.14C538.603,44.778 551.432,50.36 563.846,56.963C588.667,70.163 610.185,88.077 629.6,108.156C642.326,121.314 653.471,136.366 657.465,155.27C660.649,170.334 652.681,188.491 640.472,197.269C622.564,210.15 602.077,214.762 580.866,216.998C565.429,218.625 549.975,220.335 536.051,226.993C527.887,230.898 522.059,238.587 517.682,246.943C509.752,262.09 509.56,278.637 512.689,294.696C519.168,327.953 527.561,360.861 534.619,394.022C540.907,423.56 545.774,453.254 544.707,483.583C543.823,508.714 539.645,532.959 529.148,555.65C523.637,567.561 515.464,577.173 504.214,584.526C487.821,595.24 469.815,599.928 450.66,602.52C419.995,606.668 389.48,604.328 358.946,600.185C320.814,595.011 282.667,593.349 244.609,598.053C205.085,602.939 165.756,609.379 125.814,610.736C106.631,611.388 87.416,611.501 68.208,611.539C52.614,611.571 38.345,606.555 25.641,597.318C17.665,591.521 11.766,583.695 6.963,575.035C4.922,571.354 2.575,567.839 0.368,564.25" style="fill:none;fill-rule:nonzero;stroke:rgb(184,184,184);stroke-width:1px;stroke-linecap:butt;stroke-linejoin:miter;stroke-dasharray:6,9,6,9,6,9;"/>
            </g>
            <g transform="matrix(1,0,0,1,302.258,161.866)">
                <path d="M0,50.837C-7.563,27.834 9.15,-3.461 31.32,-13.681C43.974,-19.513 58.731,-17.076 69.794,-6.077C81.692,5.757 86.911,19.902 81.195,36.17C79.398,41.283 76.213,46.809 72.024,49.92C55.454,62.223 37.554,70.35 15.746,63.543C8.792,61.374 3.794,57.7 0.368,51.435" style="fill:none;fill-rule:nonzero;stroke:rgb(212,212,212);stroke-width:1px;"/>
            </g>
            <g transform="matrix(1,0,0,1,280.746,143.876)">
                <path d="M0,83.703C-4.543,58.035 4.478,36.233 17.973,15.8C24.716,5.59 32.707,-3.751 43.45,-9.637C64.97,-21.427 85.232,-18.036 104.268,1.463C113.779,11.206 119.382,22.999 122.797,36.312C126.278,49.89 120.177,71.772 105.756,82.448C82.214,99.874 55.572,105.13 27.1,103.995C14.438,103.488 5.607,96.019 0.368,84.301" style="fill:none;fill-rule:nonzero;stroke:rgb(212,212,212);stroke-width:1px;"/>
            </g>
            <g transform="matrix(1,0,0,1,432.943,470.898)">
                <path d="M0,9.439C-0.594,4.535 -0.941,-0.148 4.717,-2.582C10.926,-5.255 17.019,-4.163 22.445,-0.948C25.934,1.122 25.015,5.344 23.805,8.806C22.26,13.219 18.127,14.694 14.473,14.32C9.693,13.832 5.062,11.547 0.367,10.038" style="fill:none;fill-rule:nonzero;stroke:rgb(212,212,212);stroke-width:1px;"/>
            </g>
            <g transform="matrix(1,0,0,1,272.415,135.98)">
                <path d="M0,101.669C-6.143,75.311 3.444,52.656 15.151,30.514C21.437,18.627 29.884,8.351 39.465,-0.829C59.085,-19.622 89.5,-19.627 110.998,-1.215C126.056,11.683 135.875,28.02 139.035,47.4C141.886,64.901 137.005,80.467 123.511,92.571C104.566,109.562 80.926,114.883 56.921,119.448C47.191,121.296 37.45,121.095 27.521,120.387C14.79,119.478 5.876,113.815 0.368,102.267" style="fill:none;fill-rule:nonzero;stroke:rgb(212,212,212);stroke-width:1px;"/>
            </g>
            <g transform="matrix(1,0,0,1,313.665,169.478)">
                <path d="M0,32.909C-3.381,15.368 3.747,1.88 16.988,-7.733C30.098,-17.248 41.794,-15.011 52.729,-4.419C62.225,4.775 63.171,21.676 55.042,31.944C44.685,45.025 24.63,50.157 10.182,43.769C6.215,42.015 3.603,37.019 0.369,33.509" style="fill:none;fill-rule:nonzero;stroke:rgb(212,212,212);stroke-width:1px;"/>
            </g>
            <g transform="matrix(1,0,0,1,255.017,127.68)">
                <path d="M0,128.915C-5.64,105.908 1.161,84.434 8.624,63.769C16.794,41.145 28.808,20.184 46.239,3.308C60.254,-10.26 76.031,-20.765 97.043,-18.984C114.041,-17.542 127.978,-9.119 139.948,2.494C154.311,16.431 164.871,33.328 169.133,52.832C173.86,74.474 170.214,94.852 151.305,111.167C135.559,124.755 116.772,131.145 97.455,136.42C79.969,141.192 62.181,145.034 44.347,148.402C37.585,149.68 30.299,148.847 23.287,148.327C11.524,147.452 5.218,139.288 0.368,129.513" style="fill:none;fill-rule:nonzero;stroke:rgb(212,212,212);stroke-width:1px;"/>
            </g>
            <g transform="matrix(1,0,0,1,244.947,117.171)">
                <path d="M0,157.16C-5.652,133.979 -0.159,112.237 6.436,90.396C12.726,69.567 22.255,50.501 33.92,32.492C41.78,20.359 51.338,9.805 62.511,0.418C71.295,-6.964 80.915,-11.232 91.705,-13.869C105.155,-17.157 118.022,-14.984 130.329,-8.718C145.33,-1.085 156.547,10.727 166.888,23.997C178.128,38.418 185.178,54.367 187.935,72.036C190.988,91.615 184.017,114.303 167.021,128.22C148.483,143.4 126.204,149.353 104.35,156.147C82.356,162.985 59.65,167.649 37.172,172.932C32.23,174.094 26.935,174.317 21.811,174.163C11.03,173.842 4.793,166.907 0.368,157.758" style="fill:none;fill-rule:nonzero;stroke:rgb(184,184,184);stroke-width:1px;stroke-linecap:butt;stroke-linejoin:miter;stroke-dasharray:6,9,6,9,6,9;"/>
            </g>
            <g transform="matrix(1,0,0,1,236.079,105.161)">
                <path d="M0,199.362C-7.559,169.8 -2.553,141.513 5.754,113.183C13.617,86.376 25.976,62.051 40.989,38.978C52.803,20.823 67.853,5.841 87.455,-3.476C104.689,-11.668 122.68,-10.439 139.883,-2.024C159.28,7.467 173.586,22.694 185.144,40.982C194.7,56.101 202.621,71.628 203.694,89.767C205.055,112.801 197.905,131.529 179.558,146.207C165.683,157.307 149.657,162.86 133.433,168.322C108.394,176.75 83.033,184.253 58,192.698C45.226,197.008 32.932,202.679 20.302,207.428C10.724,211.03 5.958,209.05 0.368,199.96" style="fill:none;fill-rule:nonzero;stroke:rgb(212,212,212);stroke-width:1px;"/>
            </g>
            <g transform="matrix(1,0,0,1,193.815,435.743)">
                <path d="M0,28.358C-2.404,20.346 -1.511,12.548 0.792,4.755C3.928,-5.855 12.487,-10.183 22.069,-4.841C25.172,-3.112 28.216,1.262 28.749,4.769C30.012,13.099 30.369,21.561 24.641,28.996C17.286,38.541 7.271,38.264 0.368,28.957" style="fill:none;fill-rule:nonzero;stroke:rgb(212,212,212);stroke-width:1px;"/>
            </g>
            <g transform="matrix(1,0,0,1,171.299,403.606)">
                <path d="M0,84.237C-1.65,78.931 -4.367,73.683 -4.772,68.304C-7.058,38.146 -0.063,11.003 21.59,-10.585C31.896,-20.86 45.698,-23.108 55.635,-16.728C58.271,-15.037 60.998,-12.95 62.707,-10.393C75.019,8.029 85.922,27.031 84.79,50.239C83.964,67.173 77.445,80.85 64.462,91.899C55.926,99.158 46.972,104.699 35.882,105.764C19.445,107.345 7.856,99.519 0.369,84.837" style="fill:none;fill-rule:nonzero;stroke:rgb(212,212,212);stroke-width:1px;"/>
            </g>
            <g transform="matrix(1,0,0,1,158.417,378.692)">
                <path d="M0,117.072C-4.775,101.764 -6.569,86.186 -4.479,70.375C-1.399,47.072 5.713,25.329 20.058,6.645C30.587,-7.067 42.755,-19.045 57.614,-28.043C66.768,-33.587 78.348,-29.402 82.403,-19.347C85.224,-12.355 88.472,-5.52 91.804,1.253C101.233,20.423 111.431,39.467 116.4,60.225C121.742,82.531 116.743,103.157 101.04,120.023C87.555,134.507 71.29,145.193 51.69,148.403C37.905,150.659 23.782,147.735 13.276,136.882C8.004,131.431 4.61,124.133 0.369,117.672" style="fill:none;fill-rule:nonzero;stroke:rgb(184,184,184);stroke-width:1px;stroke-linecap:butt;stroke-linejoin:miter;stroke-dasharray:6,9,6,9,6,9;"/>
            </g>
        </g>
    </g>
</svg>
