<?xml version="1.0" encoding="utf-8"?>
<!-- Generator: Adobe Illustrator 23.0.1, SVG Export Plug-In . SVG Version: 6.00 Build 0)  -->
<svg version="1.1" id="Layer_1" xmlns="http://www.w3.org/2000/svg" xmlns:xlink="http://www.w3.org/1999/xlink" x="0px" y="0px"
	 viewBox="0 0 550 150" style="enable-background:new 0 0 550 150;" xml:space="preserve">
<style type="text/css">
	.st0{fill:#FFFFFF;}
	.st1{fill:#FDC700;stroke:#FDC700;stroke-width:4;stroke-miterlimit:10;}
</style>
<g>
	<g>
		<path class="st0" d="M350.42,81.65c0,1.78-0.1,7.17,6.85,7.17c4.39,0,7.17-2.09,7.17-5.28c0-3.35-2.35-3.92-7.17-5.08
			c-9-2.25-13.92-4.92-13.92-11.46c0-6.23,4.45-11.72,14.97-11.72c3.92,0,8.58,0.89,11.41,4.45c2.15,2.72,2.15,5.76,2.15,7.01h-7.8
			c-0.1-1.31-0.52-5.76-6.12-5.76c-3.77,0-6.23,2.04-6.23,5.13c0,3.51,2.77,4.13,8.22,5.49c6.54,1.57,12.98,3.35,12.98,10.73
			c0,6.8-5.65,12.3-16.12,12.3c-14.49,0-14.6-9.31-14.65-12.98H350.42z"/>
		<path class="st0" d="M392.03,76.67c-0.11-0.94-0.42-4.87-3.4-4.87c-3.66,0-4.08,5.55-4.08,8.42c0,1.46,0.16,6.17,1.94,8.11
			c0.73,0.78,1.52,0.89,2.09,0.89c0.84,0,3.24-0.37,3.56-5.08h7.64c-0.1,2.04-0.37,5.23-3.4,7.8c-1.88,1.62-4.24,2.46-7.54,2.46
			c-3.5,0-6.59-0.78-9-3.51c-2.3-2.67-3.35-6.17-3.35-10.41c0-12.03,8.84-13.71,12.35-13.71c4.92,0,10.73,2.72,10.78,9.89H392.03z"
			/>
		<path class="st0" d="M403.39,55.95h8.27v6.75h-8.27V55.95z M403.65,67.26h7.74v26.48h-7.74V67.26z"/>
		<path class="st0" d="M423.86,82.48c0,1.73,0,7.06,5.39,7.06c1.94,0,3.87-0.73,4.6-3.66h7.06c-0.1,1.26-0.37,3.51-2.51,5.76
			c-1.94,2.04-5.39,3.09-9.26,3.09c-2.25,0-6.54-0.42-9.31-3.3c-2.41-2.51-3.4-6.07-3.4-10.31c0-4.29,1.05-9.42,5.5-12.51
			c2.04-1.36,4.55-2.2,7.43-2.2c3.77,0,8.27,1.46,10.67,6.38c1.78,3.61,1.67,7.48,1.57,9.68H423.86z M433.69,77.62
			c0-1.2-0.1-5.91-4.6-5.91c-3.4,0-4.81,2.83-4.97,5.91H433.69z"/>
		<path class="st0" d="M446.26,72.02c0-0.1,0-2.98-0.16-4.81h7.43l0.21,3.98c0.73-1.2,2.83-4.6,8.58-4.6c5.18,0,7.38,3.14,8.06,4.97
			c0.58,1.62,0.73,2.98,0.73,7.9v14.28h-7.9V77.3c0-1.1,0-2.04-0.42-2.88c-0.58-1.15-1.78-2.25-3.77-2.25
			c-1.67,0-3.19,0.78-4.03,2.04c-0.47,0.68-0.94,1.99-0.94,4.03v15.49h-7.8V72.02z"/>
		<path class="st0" d="M491.53,76.67c-0.1-0.94-0.42-4.87-3.4-4.87c-3.66,0-4.08,5.55-4.08,8.42c0,1.46,0.16,6.17,1.94,8.11
			c0.73,0.78,1.52,0.89,2.09,0.89c0.84,0,3.24-0.37,3.56-5.08h7.64c-0.11,2.04-0.37,5.23-3.4,7.8c-1.88,1.62-4.24,2.46-7.53,2.46
			c-3.51,0-6.59-0.78-9-3.51c-2.3-2.67-3.35-6.17-3.35-10.41c0-12.03,8.84-13.71,12.35-13.71c4.92,0,10.73,2.72,10.78,9.89H491.53z"
			/>
		<path class="st0" d="M509.38,82.48c0,1.73,0,7.06,5.39,7.06c1.94,0,3.87-0.73,4.6-3.66h7.06c-0.1,1.26-0.37,3.51-2.51,5.76
			c-1.94,2.04-5.39,3.09-9.26,3.09c-2.25,0-6.54-0.42-9.31-3.3c-2.41-2.51-3.4-6.07-3.4-10.31c0-4.29,1.05-9.42,5.49-12.51
			c2.04-1.36,4.55-2.2,7.43-2.2c3.77,0,8.27,1.46,10.67,6.38c1.78,3.61,1.67,7.48,1.57,9.68H509.38z M519.22,77.62
			c0-1.2-0.1-5.91-4.6-5.91c-3.4,0-4.81,2.83-4.97,5.91H519.22z"/>
	</g>
	<g>
		<path class="st0" d="M26.86,102.37c0,1.64,1.16,3.06,3.49,3.06c2.24,0,3.4-1.49,3.4-3.13V43.31h4.03v57.56
			c0,3.43-1.79,6.19-7.43,6.19c-5.64,0-7.52-2.91-7.52-6.41V43.31h4.03V102.37z"/>
		<path class="st0" d="M61.04,86.26v14.39c0,3.51-1.79,6.41-7.43,6.41c-5.64,0-7.7-2.76-7.7-6.19V50.62c0-3.88,0.54-7.68,7.7-7.68
			c6.98,0,7.43,3.8,7.43,7.61v11.93h-4.03V48.53c0-1.86-0.18-4.03-3.4-4.1c-3.13,0-3.67,2.16-3.67,4.1v53.76
			c0,1.64,1.43,3.13,3.67,3.13c2.33-0.07,3.4-1.42,3.4-3.06V86.26H61.04z"/>
		<path class="st0" d="M88.86,107.06c-7.16,0-7.69-3.8-7.69-7.68V86.26h3.94v15.14c0,2.01,0.63,4.18,3.67,4.18
			c3.31-0.08,3.49-2.31,3.49-4.18V87.6c0-2.09-0.45-3.28-0.98-5.29c-0.81-3.06-1.79-4.7-3.31-7.53l-3.94-7.53
			c-1.34-2.46-1.79-4.03-2.33-6.71c-0.54-2.61-0.54-4.25-0.54-6.93v-3.06c0-3.8,0.54-7.61,7.52-7.61c7.16,0,7.61,3.88,7.61,7.68
			v11.71h-4.03V48.53c0-1.94-0.45-4.1-3.49-4.1c-3.31,0.08-3.67,2.24-3.67,4.1v3.73c0,0.15,0,0.22,0,0.37c0,2.68,0.09,4.4,0.63,7.16
			c0.54,2.46,1.07,3.95,2.33,6.34l3.76,7.16c0.8,1.72,2.24,4.1,3.04,6.79c0.89,2.83,1.43,4.1,1.43,7.38v12.01
			C96.29,103.26,95.84,106.99,88.86,107.06z"/>
		<path class="st0" d="M119.64,106.62h-3.94V74.11h-7.07v32.51h-4.03v-56c0-3.88,0.54-7.68,7.7-7.68c6.98,0,7.34,3.8,7.34,7.61
			V106.62z M115.71,71.57V48.53c0-1.86-0.18-4.03-3.49-4.1c-3.04,0-3.58,2.16-3.58,4.1v23.04H115.71z"/>
		<path class="st0" d="M139.42,81.56V43.24h3.94v63.38h-3.94V94.53l-7.16-34v46.08h-3.94V43.24h3.58L139.42,81.56z"/>
		<path class="st0" d="M165.72,45.62h-5.91v60.99h-4.03V45.62h-5.73v-2.31h15.66V45.62z"/>
		<path class="st0" d="M187.55,106.62h-3.93V74.11h-7.07v32.51h-4.03v-56c0-3.88,0.54-7.68,7.69-7.68c6.98,0,7.34,3.8,7.34,7.61
			V106.62z M183.62,71.57V48.53c0-1.86-0.18-4.03-3.49-4.1c-3.04,0-3.58,2.16-3.58,4.1v23.04H183.62z"/>
		<path class="st0" d="M223.43,86.26v14.39c0,3.51-1.79,6.41-7.43,6.41c-5.64,0-7.7-2.76-7.7-6.19V50.62c0-3.88,0.54-7.68,7.7-7.68
			c6.98,0,7.43,3.8,7.43,7.61v11.93h-4.03V48.53c0-1.86-0.18-4.03-3.4-4.1c-3.13,0-3.67,2.16-3.67,4.1v53.76
			c0,1.64,1.43,3.13,3.67,3.13c2.33-0.07,3.4-1.42,3.4-3.06V86.26H223.43z"/>
		<path class="st0" d="M243.39,106.62V79.77c0-1.87-0.27-3.8-1.52-4.62c-1.25-0.89-2.15-1.12-3.67-1.12h-1.79v32.58h-4.03V43.39
			h6.71c0,0,0.18,0,0.45,0c1.07,0,4.03,0.15,5.91,1.57c1.97,1.42,1.97,3.36,1.97,5.59c0,0.15,0,0.37,0,0.52v16.4
			c0,1.19-0.18,2.01-0.98,3.06c-0.9,1.19-3.13,2.31-3.31,2.39c0.18,0.08,1.97,1.04,2.77,2.01c1.43,1.49,1.52,2.98,1.52,4.7
			c0,0.37,0,0.74,0,1.12v25.87H243.39z M241.77,45.7c-0.72-0.3-1.79-0.6-2.95-0.6h-2.42v27.14h1.88c1.7,0,3.4-0.75,4.12-1.64
			c0.62-0.67,0.98-2.68,0.98-4.4V49.28C243.39,47.49,243.12,46.29,241.77,45.7z"/>
		<path class="st0" d="M259.58,102.37c0,1.64,1.16,3.06,3.49,3.06c2.24,0,3.4-1.49,3.4-3.13V43.31h4.03v57.56
			c0,3.43-1.79,6.19-7.43,6.19c-5.64,0-7.52-2.91-7.52-6.41V43.31h4.03V102.37z"/>
		<path class="st0" d="M288.03,45.62h-8.68v-2.39h13.6l-9.4,60.77h9.93v2.61h-14.85L288.03,45.62z"/>
	</g>
	<line class="st1" x1="318.49" y1="25" x2="318.49" y2="125"/>
</g>
</svg>
